<?xml version="1.0" encoding="utf-8"?>
<!-- Generator: Adobe Illustrator 22.1.0, SVG Export Plug-In . SVG Version: 6.00 Build 0)  -->
<svg version="1.1" id="Capa_1" xmlns="http://www.w3.org/2000/svg" xmlns:xlink="http://www.w3.org/1999/xlink" x="0px" y="0px"
	 viewBox="0 0 480 480" style="enable-background:new 0 0 480 480;" xml:space="preserve">
<style type="text/css">
	.st0{fill:#FF6F00;}
	.st1{fill:#FFA253;}
</style>
<g>
	<g>
		<rect x="72" y="288" class="st0" width="64" height="16"/>
	</g>
</g>
<g>
	<g>
		<path class="st0" d="M479.2,380.4l-24-48c-1.4-2.7-4.1-4.4-7.2-4.4h-48v-24c0-4.4-3.6-8-8-8H232c-4.4,0-8,3.6-8,8v144
			c0,4.4,3.6,8,8,8h33.1c4.3,17,21.7,27.4,38.7,23c11.3-2.9,20.1-11.7,23-23h58.3c4.3,17,21.7,27.4,38.7,23
			c11.3-2.9,20.1-11.7,23-23H472c4.4,0,8-3.6,8-8v-64C480,382.8,479.7,381.5,479.2,380.4z M296,464c-8.8,0-16-7.2-16-16
			s7.2-16,16-16s16,7.2,16,16C312,456.8,304.8,464,296,464z M384,440h-57.1c-3.6-14.1-16.3-24-30.9-24c-14.6,0-27.2,9.9-30.9,24H240
			V312h144V440z M432,344h11.1l16,32H432V344z M416,464c-8.8,0-16-7.2-16-16s7.2-16,16-16s16,7.2,16,16C432,456.8,424.8,464,416,464
			z M464,440h-17.1c-3.6-14.1-16.3-24-30.9-24c-5.6,0-11.2,1.6-16,4.5V344h16v40c0,4.4,3.6,8,8,8h40V440z"/>
	</g>
</g>
<g>
	<g>
		<rect x="176" y="112" class="st0" width="16" height="16"/>
	</g>
</g>
<g>
	<g>
		<rect x="208" y="112" class="st0" width="16" height="16"/>
	</g>
</g>
<g>
	<g>
		<rect x="240" y="112" class="st0" width="16" height="16"/>
	</g>
</g>
<g>
	<g>
		<rect x="272" y="112" class="st0" width="16" height="16"/>
	</g>
</g>
<g>
	<g>
		<path class="st0" d="M440.7,133.6l-24.8-24.8c-18.4-18.4-43.4-28.8-69.4-28.8h-62l-37.6-60.2c-1.5-2.3-4-3.8-6.8-3.8h-24
			c-4.4,0-8,3.6-8,8c0,0.7,0.1,1.3,0.2,1.9L221.8,80H158L135.7,5.7c-1-3.4-4.1-5.7-7.7-5.7H88c-4.4,0-8,3.6-8,8v80h0.1
			c0,2.1,0.8,4.1,2.3,5.7l50,50c20.6,20.8,48.7,32.4,78,32.3h2.2l-19.9,44.8c-1.8,4,0,8.8,4.1,10.6c0.2,0.1,0.5,0.2,0.7,0.3l24,8
			c3.4,1.1,7.1-0.1,9.1-3l42.4-60.6h150.3c13.7,0,24.8-11.1,24.9-24.8C448,144.6,445.4,138.3,440.7,133.6z M235.6,32l30,48h-27.3
			l-12-48H235.6z M96,16h26l19.2,64H96V16z M220.8,222.5l-10-3.3l26.3-59.2h27.4L220.8,222.5z M431.3,154.5
			c-1.3,3.4-4.6,5.5-8.2,5.5H284.1l2.4-3.4c2.5-3.6,1.6-8.6-2-11.1c-1.3-0.9-2.9-1.4-4.6-1.4h-48c-3.2,0-6,1.9-7.3,4.8l-5,11.2h-9.3
			c-25,0.1-49-9.9-66.7-27.7L107.3,96h239.2c17.4,0.1,34.4,5.7,48.5,16h-59v16h76.4l17,17C432,147.4,432.7,151.2,431.3,154.5z"/>
	</g>
</g>
<g>
	<g>
		<path class="st0" d="M196.1,458.1c-5-5.4-11.8-8.9-19.1-9.9l30.5-85.5c1.5-4.2-0.7-8.7-4.9-10.2c0,0-0.1,0-0.1,0l-19.5-6.5
			l-15.2-83.3c-0.7-3.8-4-6.6-7.9-6.6h-32v-24c0-4.4-3.6-8-8-8H88c-4.4,0-8,3.6-8,8v24H48c-3.9,0-7.2,2.8-7.9,6.6L25,345.9
			l-19.5,6.5c-4.2,1.4-6.5,5.9-5.1,10.1c0,0,0,0.1,0.1,0.1L31,448.2c-7.3,1-14.1,4.5-19.1,9.9C9,461.8,4.7,463.9,0,464v16
			c8.7,0,16.9-3.7,22.8-10.1c2.9-3.6,7.3-5.8,11.9-5.9c1.7,0,3.4,0.3,4.9,0.9c0.1,0,0.1,0.1,0.2,0.1c2.5,1.3,4.8,2.9,6.7,4.9
			c5.9,6.3,14.2,10,22.8,10c8.7,0,16.9-3.7,22.8-10.1c5-6.6,14.4-7.8,21-2.8c1,0.8,2,1.7,2.8,2.8c5.8,6.4,14.1,10.1,22.8,10.1
			c8.7-0.1,16.9-3.7,22.8-10c1.9-2,4.2-3.7,6.7-4.9c0.1,0,0.1-0.1,0.2-0.1c1.6-0.6,3.3-0.9,5-0.9c4.6,0.1,9,2.2,11.9,5.9
			c5.8,6.4,14.1,10.1,22.8,10.1v-16C203.4,463.9,199,461.8,196.1,458.1z M96,240h16v16H96V240z M96,449c-5.6,1.7-10.6,4.9-14.7,9.1
			c-5,6.6-14.5,7.8-21.1,2.8c-1-0.8-2-1.7-2.8-2.8c-2.5-2.4-5.2-4.6-8.2-6.4l-31-86.8L96,339.1V449z M101.5,320.4l-59.2,19.7
			L54.7,272h98.6l12.4,68.1l-59.2-19.7C104.9,319.9,103.1,319.9,101.5,320.4z M158.7,451.8c-2.9,1.8-5.7,3.9-8.1,6.3
			c-5,6.6-14.4,7.8-21,2.8c-1.1-0.8-2-1.7-2.8-2.8c-4.1-4.3-9.2-7.4-14.8-9.1V339.1l77.7,25.9L158.7,451.8z"/>
	</g>
</g>
<g>
	<g>
		<rect x="304" y="112" class="st0" width="16" height="16"/>
	</g>
</g>
<rect x="-507" y="120" class="st0" width="150" height="94"/>
<rect x="-515" y="241" class="st1" width="150" height="94"/>
</svg>
