<svg xmlns="http://www.w3.org/2000/svg" viewBox="0 0 80.3 41.51"><defs><style>.cls-1{fill:#fff;}.cls-2{fill:none;stroke:#fff;stroke-miterlimit:10;stroke-width:3px;}</style></defs><title>chat</title><g id="Layer_2" data-name="Layer 2"><g id="Layer_1-2" data-name="Layer 1"><line class="cls-1" x1="22.73" y1="13.54" x2="39.73" y2="13.54"/><path class="cls-1" d="M39.73,15h-17a1.5,1.5,0,1,1,0-3h17.1a1.54,1.54,0,0,1,1.5,1.5A1.56,1.56,0,0,1,39.73,15Z"/><line class="cls-1" x1="18.83" y1="17.74" x2="28.13" y2="17.74"/><path class="cls-1" d="M28.13,19.24h-9.3a1.5,1.5,0,0,1,0-3h9.3a1.54,1.54,0,0,1,1.5,1.5A1.47,1.47,0,0,1,28.13,19.24Z"/><line class="cls-1" x1="33.53" y1="19.84" x2="41.73" y2="19.84"/><path class="cls-1" d="M41.73,21.34h-8.2a1.5,1.5,0,0,1,0-3h8.2a1.5,1.5,0,0,1,0,3Z"/><line class="cls-1" x1="23.03" y1="26.04" x2="37.73" y2="26.04"/><path class="cls-1" d="M37.73,27.54H23a1.5,1.5,0,0,1,0-3h14.7a1.5,1.5,0,0,1,0,3Z"/><line class="cls-1" x1="51.38" y1="13.66" x2="62.28" y2="13.66"/><path class="cls-1" d="M62.28,14.66H51.38a1,1,0,1,1,0-2h10.9a1,1,0,1,1,0,2Z"/><line class="cls-1" x1="53" y1="17.74" x2="62.13" y2="17.74"/><path class="cls-1" d="M62.13,18.72H53c-.88,0-1.62-.44-1.62-1s.74-1,1.62-1h9.13c.88,0,1.62.44,1.62,1S63,18.72,62.13,18.72Z"/><line class="cls-1" x1="52.18" y1="22.47" x2="60.48" y2="22.47"/><path class="cls-1" d="M60.48,23.47h-8.3a1,1,0,1,1,0-2h8.3a1,1,0,1,1,0,2Z"/><path class="cls-2" d="M43.55,6.1A19.24,19.24,0,0,0,11.83,20.76c0,1.82-.14,4.94-.14,4.94L3,37H20.29s6.82,3,10.79,3a19.2,19.2,0,0,0,16.36-9.12"/><path class="cls-2" d="M77.26,30.19H63.32s-5.52,2.44-8.73,2.44a15.48,15.48,0,0,1-7.15-1.74A19.22,19.22,0,0,0,43.55,6.1a15.56,15.56,0,0,1,26.61,11c0,1.48.11,4,.11,4Z"/></g></g></svg>