<?xml version="1.0" encoding="utf-8"?>
<!-- Generator: Adobe Illustrator 22.1.0, SVG Export Plug-In . SVG Version: 6.00 Build 0)  -->
<svg version="1.1" id="Layer_1" xmlns="http://www.w3.org/2000/svg" xmlns:xlink="http://www.w3.org/1999/xlink" x="0px" y="0px"
	 viewBox="0 0 643.7 883.4" style="enable-background:new 0 0 643.7 883.4;" xml:space="preserve">
<style type="text/css">
	.st0{fill:#FFD200;}
</style>
<title>clock</title>
<g id="Layer_2_1_">
	<g id="Layer_1-2">
		<path class="st0" d="M562.3,339.3l13.9-14.1l13.4,13.6l40.1-40.8l-53.5-54.4L536,284.4l13.4,13.6l-13.9,14.1
			c-51.1-46.2-116.6-76.1-188.8-81.8v-18.3H361v-12.7c38.8-16.1,64-54,63.9-96C424.9,46.4,379.2,0,323.1,0S221.3,46.4,221.3,103.4
			c-0.1,42,25.1,79.9,63.9,96V212h14.2v18.1c-73.1,5.1-139.6,35.2-191.3,81.9l-13.9-14.1l13.4-13.6l-40.2-40.8L14,297.9l40.2,40.8
			l13.4-13.6l13.8,14.1C28.8,399.3-0.1,476.5,0,556.4c0,180.3,144.4,327,321.9,327s321.9-146.7,321.9-327
			C643.9,476.5,614.9,399.3,562.3,339.3z M285.2,138.5v45.1c-30.5-15.1-49.8-46.2-49.7-80.2c0-49.1,39.3-89,87.6-89
			s87.6,39.9,87.6,89c0.1,34-19.2,65.1-49.7,80.2v-45.1h18.9V100H266.3v38.5L285.2,138.5z M321.9,844.9
			c-156.8,0-284-129.2-284-288.6s127.1-288.6,284-288.6s284,129.2,284,288.6S478.7,844.9,321.9,844.9z M307.9,296.8h24.6v59h-24.6
			L307.9,296.8z M236.9,312.1l21.1,54.5l-22.7,10L214,322.1L236.9,312.1z M155,364.6l39.3,41.7l-17.4,18.5l-39.3-41.7L155,364.6z
			 M97.8,446.5l51.3,22.5l-9.4,24.1l-51.3-22.6L97.8,446.5z M74.7,545.3h55.5v26.1H74.7V545.3z M88.8,646.6l51.3-22.6l9.4,24.1
			l-51.3,22.6L88.8,646.6z M155.9,752l-17.4-18.5l39.3-41.7l17.4,18.5L155.9,752z M238.9,804.5l-22.7-10l21.2-54.5l22.7,10
			L238.9,804.5z M308.6,759.3h24.6v59h-24.6L308.6,759.3z M404.1,803.5L382.8,749l22.7-10l21.2,54.5L404.1,803.5z M485.7,751.1
			l-39.3-41.7l17.4-18.5l39.3,41.7L485.7,751.1z M543.5,669.1l-51.3-22.6l9.4-24.1L553,645L543.5,669.1z M510.8,544.5h55.5v26.1
			h-55.5V544.5z M552.2,469.2l-51.3,22.6l-9.4-24.1l51.3-22.6L552.2,469.2z M485,363.2l17.4,18.5l-39.3,41.7l-17.4-18.5L485,363.2z
			 M402.5,310.8l22.7,10L404,375.3l-22.7-10L402.5,310.8z M344.3,513.3c-7.4-4.5-15.9-6.8-24.6-6.7c-27,0-48.4,22.8-48.4,51.4
			s21.4,51.4,48.4,51.4s48.4-22.8,48.4-51.4c0.1-9.2-2.4-18.2-7.1-26.1l81.6-86.8l-17.5-18.5L344.3,513.3z"/>
	</g>
</g>
</svg>
