<svg xmlns="http://www.w3.org/2000/svg" viewBox="0 0 643.71 883.42"><defs><style>.cls-1{fill:#ffa253;}</style></defs><title>clock</title><g id="Layer_2" data-name="Layer 2"><g id="Layer_1-2" data-name="Layer 1"><path class="cls-1" d="M562.33,339.25l13.87-14.09,13.4,13.6L629.74,298,576.2,243.55l-40.15,40.81L549.43,298l-13.87,14.09C484.48,265.91,418.94,236,346.77,230.33V212.06H361v-12.7a103.54,103.54,0,0,0,63.88-96C424.85,46.39,379.22,0,323.09,0S221.33,46.39,221.33,103.41a103.55,103.55,0,0,0,63.9,96V212h14.2v18.1c-73.14,5.14-139.62,35.21-191.26,81.89l-13.88-14.1,13.39-13.6L67.52,243.52,14,297.93l40.17,40.8,13.39-13.6L81.4,339.22A328.8,328.8,0,0,0,0,556.39c0,180.32,144.38,327,321.85,327s321.86-146.71,321.86-327A328.7,328.7,0,0,0,562.33,339.25ZM285.23,138.49v45.13a89.19,89.19,0,0,1-49.7-80.21c0-49.06,39.28-89,87.56-89s87.57,39.91,87.57,89A89.18,89.18,0,0,1,361,183.62V138.49h18.92V100H266.3v38.48Zm36.62,706.45c-156.84,0-284-129.19-284-288.56S165,267.82,321.85,267.82s284,129.2,284,288.56S478.7,844.94,321.85,844.94Zm-14-548.18h24.58v59H307.83Zm-71,15.29L258,366.54l-22.72,10-21.24-54.48Zm-81.9,52.59,39.25,41.71-17.38,18.46-39.25-41.7ZM97.77,446.45,149.05,469l-9.4,24.13L88.36,470.58ZM74.69,545.3H130.2v26.12H74.69ZM88.85,646.57,140.14,624l9.4,24.13L98.26,670.7Zm67,105.42-17.38-18.47,39.25-41.7,17.38,18.47Zm83,52.47-22.71-10L237.39,740l22.71,10Zm69.76-45.17H333.2v59H308.62Zm95.46,44.24-21.24-54.48,22.71-10,21.24,54.49Zm81.66-52.43-39.25-41.7,17.38-18.47,39.26,41.7Zm57.81-82-51.29-22.57,9.41-24.13L553,645ZM510.83,544.46h55.51v26.11H510.83Zm41.38-75.29-51.29,22.57-9.41-24.13,51.29-22.56ZM485,363.18l17.39,18.47-39.25,41.7-17.39-18.47Zm-82.51-52.37,22.71,10L404,375.29l-22.71-10ZM344.31,513.28a47,47,0,0,0-24.59-6.74c-27,0-48.37,22.75-48.37,51.4s21.41,51.39,48.37,51.39,48.38-22.75,48.38-51.39A49.46,49.46,0,0,0,361,531.82L442.64,445l-17.45-18.53Z"/></g></g></svg>