<svg xmlns="http://www.w3.org/2000/svg" viewBox="0 0 32 32"><defs><style>.cls-1{fill:#ffd200;}</style></defs><title>close</title><g id="Layer_2" data-name="Layer 2"><g id="Layer_1-2" data-name="Layer 1"><path class="cls-1" d="M16,32A16,16,0,1,1,32,16,16,16,0,0,1,16,32ZM16,3.15A12.85,12.85,0,1,0,28.85,16,12.87,12.87,0,0,0,16,3.15Z"/><path class="cls-1" d="M21.88,19.49,18.39,16l3.49-3.49a1.69,1.69,0,0,0-2.39-2.39L16,13.61l-3.49-3.49a1.69,1.69,0,0,0-2.39,2.39L13.61,16l-3.49,3.49a1.69,1.69,0,0,0,2.39,2.39L16,18.39l3.49,3.49a1.69,1.69,0,0,0,2.39-2.39Z"/></g></g></svg>