<?xml version="1.0" encoding="utf-8"?>
<!-- Generator: Adobe Illustrator 22.1.0, SVG Export Plug-In . SVG Version: 6.00 Build 0)  -->
<svg version="1.1" id="Capa_1" xmlns="http://www.w3.org/2000/svg" xmlns:xlink="http://www.w3.org/1999/xlink" x="0px" y="0px"
	 viewBox="0 0 512 512" style="enable-background:new 0 0 512 512;" xml:space="preserve">
<style type="text/css">
	.st0{fill:#FFD200;}
	.st1{fill:#FF6F00;}
	.st2{fill:#FFA253;}
</style>
<g>
	<g>
		<path class="st0" d="M397.7,173.7c-4.6-34-21.3-65.3-47.2-88.1c-26.1-23-59.7-35.7-94.5-35.7s-68.4,12.7-94.5,35.7
			c-25.9,22.8-42.6,54.1-47.2,88.1c-0.6,4.1,2.3,7.9,6.4,8.4c4.1,0.6,7.9-2.3,8.4-6.4c8.5-63.1,63-110.7,126.8-110.7
			s118.3,47.6,126.8,110.8c0.5,3.8,3.7,6.5,7.4,6.5c0.3,0,0.7,0,1-0.1C395.3,181.6,398.2,177.8,397.7,173.7z"/>
	</g>
</g>
<g>
	<g>
		<path class="st0" d="M391.3,202.2c-4.1-0.5-7.9,2.4-8.4,6.5c-7.9,63.9-62.5,112.1-127,112.1s-119.1-48.2-127-112.1
			c-0.5-4.1-4.2-7-8.4-6.5c-4.1,0.5-7,4.2-6.5,8.4c8.8,71.4,69.8,125.3,141.9,125.3c72,0,133-53.8,141.8-125.2
			C398.4,206.5,395.4,202.7,391.3,202.2z"/>
	</g>
</g>
<g>
	<g>
		<path class="st0" d="M299.4,240.1h-16.8V111.5c0-5.3-4.3-9.7-9.7-9.7h-25.3c-2.3,0-4.5,0.8-6.2,2.3l-45.9,38.6
			c-4,3.4-4.6,9.2-1.4,13.4l15.1,19.3c1.6,2,4,3.4,6.6,3.7s5.2-0.5,7.2-2.2l10.5-8.7v72h-21.2l0,0c-5.3,0-9.7,4.3-9.7,9.7v22.9
			c0,5.3,4.3,9.7,9.7,9.7h87.2c5.3,0,9.7-4.3,9.7-9.7v-22.9C309.1,244.5,304.7,240.1,299.4,240.1z M294.1,267.4h-76.6v-12.3h21.2
			c5.3,0,9.7-4.3,9.7-9.7v-88.7c0-3.8-2.1-7.1-5.6-8.7c-3.4-1.6-7.4-1.1-10.3,1.3l-15,12.4l-8.5-10.9l40.5-34h18v128.6
			c0,5.3,4.3,9.7,9.7,9.7H294v12.3H294.1z"/>
	</g>
</g>
<g>
	<g>
		<path class="st0" d="M459.4,429.1l-67.6-105.7c7.6-1.6,14.5-5.9,19.2-12.1c5.4-7.2,7.6-16.4,6-25.3c-1.4-7.5,2.4-15.2,9.2-18.6
			c8.1-4,14.1-11.3,16.6-20c2.5-8.7,1.2-18.1-3.6-25.8c-4-6.5-3.2-15,1.9-20.6c6.1-6.7,9.1-15.7,8.3-24.7c-0.8-9-5.4-17.3-12.7-22.7
			c-6.1-4.6-8.4-12.8-5.7-19.9c3.3-8.4,2.8-17.9-1.2-26s-11.3-14.1-20-16.6c-7.4-2.1-12.5-8.9-12.5-16.5c0-9-3.8-17.7-10.5-23.8
			s-15.7-9.1-24.7-8.3c-7.6,0.7-14.9-3.8-17.6-10.9c-3.3-8.4-10-15.1-18.4-18.4s-17.9-2.8-26,1.2c-6.8,3.4-15.2,1.8-20.4-3.8
			C273.7,3.8,265,0,256,0s-17.7,3.8-23.8,10.5c-5.2,5.6-13.5,7.2-20.4,3.8c-8.1-4-17.6-4.5-26-1.2s-15.1,10-18.4,18.4
			c-2.8,7.1-10,11.6-17.6,10.9c-9-0.8-18,2.2-24.7,8.3s-10.5,14.8-10.5,23.8c0,7.6-5.1,14.5-12.5,16.5c-8.7,2.5-16,8.5-20,16.6
			s-4.5,17.6-1.2,26c2.8,7.1,0.4,15.3-5.7,19.9c-7.2,5.4-11.8,13.7-12.7,22.7c-0.8,9,2.2,18,8.3,24.7c5.2,5.7,5.9,14.1,1.9,20.6
			c-4.8,7.7-6.1,17.1-3.6,25.8s8.5,16,16.6,20c6.8,3.4,10.6,11,9.2,18.6c-1.7,8.9,0.5,18.1,6,25.3c4.7,6.3,11.6,10.5,19.2,12.1
			L52.6,429.1c-2.5,3.9-2.5,8.8-0.2,12.7s6.7,6.1,11.3,5.7l65.9-5.8L152,504c1.6,4.3,5.4,7.4,10,7.9c0.5,0.1,0.9,0.1,1.4,0.1
			c4.1,0,7.9-2,10.1-5.5L256,377.6l82.4,128.9c2.2,3.5,6,5.5,10.1,5.5c0.5,0,0.9,0,1.4-0.1c4.6-0.5,8.4-3.5,10-7.9l22.4-62.3
			l65.9,5.8c4.6,0.4,8.9-1.8,11.3-5.7C461.9,437.9,461.9,433,459.4,429.1z M68.5,432.1l65.9-103c2.3,2.4,4,5.4,4.7,8.9
			c1.2,6.5,4.4,12.4,9,16.9l-46.9,74.4L68.5,432.1z M145.9,442.4l-2.8-7.9c-1.8-5.1-6.9-8.4-12.4-7.9l-10.8,1l41-64.9
			c6,1.9,12.5,2.1,18.6,0.3c5.2-1.5,10.7-0.4,14.9,2.7L145.9,442.4z M164.2,493.3l-11.9-32.9l52.3-82.9c4.4,3.9,9.8,6.6,15.6,7.7
			c4.4,0.8,8.9,0.7,13.2-0.3L164.2,493.3z M260.7,361.1c-0.5-0.1-1-0.2-1.5-0.2c-1.1-0.1-2.1-0.2-3.2-0.2s-2.1,0.1-3.2,0.2
			c-0.5,0-1,0.1-1.5,0.2c-5.2,0.8-10.3,2.8-14.7,6.1c-3.9,3-8.7,4.1-13.5,3.2s-8.9-3.7-11.5-7.9c-0.5-0.9-1.1-1.7-1.8-2.5
			c-0.1-0.1-0.2-0.2-0.3-0.4c-8-10.1-21.5-14.7-34.1-11.1c-4.7,1.3-9.6,0.7-13.8-1.9s-7-6.7-7.9-11.5c-1.9-10.3-8.7-18.7-17.8-23.1
			c-0.5-0.3-0.9-0.5-1.4-0.6c-3-1.2-6.1-2.1-9.4-2.4c-4.9-0.5-9.2-2.9-12.1-6.8c-3-3.9-4.1-8.7-3.2-13.5
			c2.6-14.1-4.5-28.4-17.3-34.7c-4.4-2.2-7.5-6-8.9-10.7c-1.3-4.7-0.7-9.6,1.9-13.8c7.5-12.2,6.1-28.1-3.6-38.6
			c-3.3-3.6-4.9-8.3-4.4-13.2s2.9-9.2,6.8-12.1c11.4-8.6,15.8-24,10.6-37.3c-1.8-4.6-1.5-9.5,0.6-13.9c2.2-4.4,6-7.5,10.7-8.9
			c13.8-3.9,23.4-16.7,23.4-31c0-4.9,2-9.4,5.6-12.7s8.3-4.9,13.2-4.4c14.3,1.3,27.8-7.1,33-20.4c1.8-4.6,5.3-8.1,9.8-9.8
			c4.6-1.8,9.5-1.5,13.9,0.6c12.8,6.4,28.5,3.4,38.1-7.1c3.3-3.6,7.8-5.6,12.7-5.6c4.9,0,9.4,2,12.7,5.6
			c9.6,10.6,25.3,13.5,38.1,7.1c4.4-2.2,9.3-2.4,13.9-0.6s8.1,5.3,9.8,9.8c5.2,13.3,18.7,21.7,33,20.4c4.9-0.5,9.6,1.1,13.2,4.4
			s5.6,7.8,5.6,12.7c0,14.3,9.6,27,23.4,31c4.7,1.3,8.5,4.5,10.7,8.9s2.4,9.3,0.6,13.9c-5.2,13.3-0.8,28.7,10.6,37.3
			c3.9,3,6.3,7.3,6.8,12.1s-1.1,9.6-4.4,13.2c-9.6,10.6-11.1,26.5-3.6,38.6c2.6,4.2,3.3,9.1,1.9,13.8c-1.3,4.7-4.5,8.5-8.9,10.7
			c-12.8,6.4-19.9,20.7-17.3,34.7c0.9,4.8-0.2,9.6-3.2,13.5s-7.3,6.3-12.1,6.8c-3.3,0.3-6.5,1.1-9.5,2.4c-0.5,0.2-1,0.4-1.4,0.6
			c-9.1,4.4-15.9,12.8-17.8,23.1c-0.9,4.8-3.7,8.9-7.9,11.5c-4.2,2.6-9.1,3.3-13.8,1.9c-12.6-3.6-26.2,1-34.1,11.1
			c-0.1,0.1-0.2,0.2-0.3,0.4c-0.6,0.8-1.2,1.7-1.8,2.5c-2.6,4.2-6.7,7-11.5,7.9s-9.6-0.2-13.5-3.2
			C271,363.9,265.9,361.9,260.7,361.1z M347.8,493.3l-69.3-108.4c2.4,0.6,4.9,0.9,7.4,0.9c2,0,3.9-0.2,5.9-0.5
			c5.9-1.1,11.3-3.8,15.6-7.7l52.3,82.9L347.8,493.3z M381.3,426.6c-5.4-0.5-10.5,2.8-12.4,7.9l-2.9,7.9l-48.4-76.8
			c4.2-3.1,9.7-4.2,14.9-2.7c6.1,1.7,12.6,1.6,18.6-0.3l41,64.9L381.3,426.6z M410.9,429.2L364,354.9c4.6-4.6,7.8-10.5,9-16.9
			c0.6-3.4,2.3-6.5,4.7-8.9l65.9,103L410.9,429.2z"/>
	</g>
</g>
<rect x="-278" y="41.5" class="st1" width="150" height="94"/>
<rect x="-286" y="162.5" class="st2" width="150" height="94"/>
<rect x="-286" y="288.9" class="st0" width="150" height="94"/>
</svg>
