<?xml version="1.0" encoding="utf-8"?>
<!-- Generator: Adobe Illustrator 22.1.0, SVG Export Plug-In . SVG Version: 6.00 Build 0)  -->
<svg version="1.1" id="Capa_1" xmlns="http://www.w3.org/2000/svg" xmlns:xlink="http://www.w3.org/1999/xlink" x="0px" y="0px"
	 viewBox="0 0 75.3 75.3" style="enable-background:new 0 0 75.3 75.3;" xml:space="preserve">
<style type="text/css">
	.st0{fill:#FF6F00;}
	.st1{fill:#FFA253;}
</style>
<path class="st0" d="M20.1,24c0-0.7,0.1-2.7,1.5-3.3c1.4-0.5,2.9,0.9,3.2,1.2c0.4,0.4,0.4,1,0,1.4c-0.4,0.4-1,0.4-1.4,0
	c-0.3-0.4-0.9-0.7-1.1-0.7c0,0-0.2,0.4-0.2,1.5c-0.1,3.7,2.8,4.7,2.8,4.7c0.3,0.1,0.6,0.4,0.6,0.7l0,0.2c0,0.1,0,0.1,0,0.2
	c0.8,9.6,8.4,12.8,12,12.8s11.2-3.1,12-12.8c0-0.1,0-0.1,0-0.2l0-0.2c0.1-0.3,0.3-0.6,0.6-0.7c0.1,0,2.9-1.1,2.8-4.7
	c0-1.2-0.3-1.5-0.3-1.5c-0.1,0-0.7,0.4-1,0.8c-0.4,0.4-1,0.4-1.4,0c-0.4-0.4-0.4-1,0-1.4c0.3-0.3,1.8-1.8,3.2-1.2
	c1.5,0.6,1.5,2.6,1.5,3.3c0.1,3.6-2,5.6-3.6,6.4c-1,9.8-8.7,14.1-14,14.1s-12.9-4.4-14-14.1C22.1,29.6,20,27.6,20.1,24z M65.7,53.5
	c0-0.1,0-0.1,0-0.2c-1.1-6.9-6.6-13.3-14.1-16.4c-0.5-0.2-1.1,0-1.3,0.5s0,1.1,0.5,1.3c6.9,2.8,11.9,8.6,12.9,14.8l0,11
	c0,0,0.3,3.6-1.8,5.8c-1.2,1.3-2.9,1.9-5.1,1.9c-0.6,0-1,0.4-1,1s0.4,1,1,1c2.8,0,5.1-0.9,6.6-2.6c2.6-2.9,2.3-7.1,2.3-7.2
	L65.7,53.5L65.7,53.5z M18.2,72.3c-2.2,0-4-0.6-5.1-1.9c-2.1-2.2-1.8-5.8-1.8-5.9V53.6c1-6.2,6-12,12.9-14.8
	c0.5-0.2,0.8-0.8,0.5-1.3S24,36.8,23.5,37C16,40.1,10.4,46.5,9.4,53.4c0,0,0,0.1,0,0.2l0,10.9c0,0.2-0.4,4.4,2.3,7.3
	c1.6,1.7,3.8,2.6,6.6,2.6c0.6,0,1-0.4,1-1S18.8,72.3,18.2,72.3z M52.5,71.1c-1.2,0-2.4-0.4-3.3-1.1c-2.9,3.4-7.1,5.4-11.6,5.4
	c-4.5,0-8.6-2-11.5-5.4c-0.9,0.7-2,1.1-3.2,1.1c-3,0-5.4-2.4-5.4-5.4l0-6.8c0-1.5,0-3.1,1.2-4.3c0.9-0.9,2.3-1.3,4.2-1.3
	c0.5,0,0.9,0,1.3,0.1c2.6-5,7.8-8.2,13.4-8.2c5.6,0,10.8,3.1,13.4,8.1c0,0,0,0.1,0,0.2c0.4-0.1,0.9-0.1,1.4-0.1c2,0,3.3,0.4,4.2,1.3
	c1.2,1.2,1.2,2.8,1.2,4.3l0,6.8C57.8,68.6,55.4,71.1,52.5,71.1z M40.2,47.4v6.1c1.9,0.7,3.5,2.3,4.2,4.2h2.7
	c0.1-1.1,0.3-2.2,1.1-3.1c0.3-0.3,0.6-0.5,0.9-0.6C47.2,50.5,44,48.1,40.2,47.4z M28.2,62.7h2.6c-0.3-0.8-0.5-1.6-0.5-2.5
	c0-0.2,0-0.4,0-0.6h-2.2L28.2,62.7z M37.6,65.5c2.9,0,5.3-2.4,5.3-5.3S40.5,55,37.6,55s-5.3,2.4-5.3,5.3S34.7,65.5,37.6,65.5z
	 M44.9,60.2c0,0.9-0.2,1.7-0.5,2.5h2.7l0-3.1h-2.2C44.9,59.8,44.9,60,44.9,60.2z M37.6,47.1c-0.2,0-0.4,0-0.6,0V53
	c0.2,0,0.4,0,0.6,0s0.4,0,0.6,0v-5.9C38,47.1,37.8,47.1,37.6,47.1z M26.1,53.9c0.4,0.2,0.7,0.4,0.9,0.7c0.9,0.9,1.1,2,1.1,3.1h2.6
	c0.7-1.9,2.3-3.5,4.2-4.2v-6.1C31.3,48.1,28,50.5,26.1,53.9z M25.9,67.1h-2c-0.6,0-1-0.4-1-1s0.4-1,1-1h2.3v-1.6H24
	c-0.6,0-1-0.4-1-1s0.4-1,1-1h2.3v-1.8H24c-0.6,0-1-0.4-1-1s0.4-1,1-1h2.3c0-0.7-0.2-1.3-0.6-1.7c-0.5-0.5-1.4-0.7-2.8-0.7
	s-2.3,0.2-2.8,0.7c-0.6,0.6-0.6,1.7-0.6,2.9l0,6.8c0,1.9,1.5,3.4,3.4,3.4C24.2,69.1,25.4,68.2,25.9,67.1z M47.8,68.5
	C47.8,68.5,47.8,68.5,47.8,68.5c-0.4-0.9-0.7-1.8-0.7-2.8v-1h-3.8c-1.3,1.7-3.4,2.8-5.7,2.8s-4.4-1.1-5.7-2.8c0,0,0,0,0,0h-3.7v1
	c0,1-0.3,2-0.8,2.8c2.5,3.1,6.2,4.9,10.2,4.9C41.6,73.3,45.3,71.6,47.8,68.5z M52.5,69.1c1.9,0,3.4-1.5,3.4-3.4l0-6.8
	c0-1.2,0-2.3-0.6-2.9c-0.5-0.5-1.4-0.7-2.8-0.7s-2.3,0.2-2.8,0.7c-0.4,0.4-0.5,1-0.6,1.7h2.3c0.6,0,1,0.4,1,1s-0.4,1-1,1h-2.3v1.8
	h2.3c0.6,0,1,0.4,1,1s-0.4,1-1,1h-2.3v1.6h2.3c0.6,0,1,0.4,1,1s-0.4,1-1,1h-2C49.9,68.2,51.1,69.1,52.5,69.1z M38.2,25v4.8H36
	c-0.6,0-1,0.4-1,1s0.4,1,1,1h3.2c0.6,0,1-0.4,1-1V25c0-0.6-0.4-1-1-1S38.2,24.5,38.2,25z M21.6,16.9c0-7.1,0-14.3,12.5-15.5
	C34.2,0.6,35.7,0,37.6,0s3.4,0.6,3.6,1.4c12.4,1.1,12.5,8.4,12.5,15.5c0,0.6-0.4,1-1,1H22.6C22,17.9,21.6,17.5,21.6,16.9z
	 M23.6,15.9h28.1c0-7.1-0.6-12.6-14.1-12.6S23.6,8.8,23.6,15.9z M39.4,11.4h-3.6c-1.9,0-3.4,1.2-3.4,2.6h10.5
	C42.9,12.5,41.3,11.4,39.4,11.4z M45.2,44.3c-0.2,0.5,0,1.1,0.5,1.3l4.8,2.2c0.1,0.1,0.3,0.1,0.4,0.1c0.2,0,0.4,0,0.5-0.1
	c0.3-0.2,0.5-0.5,0.5-0.8l0.4-5.8c0-0.6-0.4-1-0.9-1.1c-0.6,0-1,0.4-1.1,0.9l-0.3,4.3l-3.5-1.6C46,43.5,45.4,43.8,45.2,44.3z
	 M28.8,43.8l-3.5,1.6L25,41.1c0-0.6-0.5-1-1.1-0.9c-0.6,0-1,0.5-0.9,1.1l0.4,5.8c0,0.3,0.2,0.6,0.5,0.8c0.2,0.1,0.3,0.1,0.5,0.1
	c0.1,0,0.3,0,0.4-0.1l4.8-2.2c0.5-0.2,0.7-0.8,0.5-1.3C29.9,43.8,29.3,43.5,28.8,43.8z M19.5,20.3c0-0.6-0.4-1-1-1
	c-0.1,0-14.9,0.2-14.9,15.2v38.2c0,0.6,0.4,1,1,1s1-0.4,1-1V34.5c0-13.1,12.4-13.2,12.9-13.2C19.1,21.3,19.5,20.8,19.5,20.3z
	 M56.8,19.3c-0.6,0-1,0.4-1,1s0.4,1,1,1c0.5,0,12.9,0.1,12.9,13.2v38.2c0,0.6,0.4,1,1,1s1-0.4,1-1V34.5C71.7,19.4,57,19.3,56.8,19.3
	z"/>
<rect x="-323" y="-123" class="st0" width="150" height="94"/>
<rect x="-331" y="-2" class="st1" width="150" height="94"/>
</svg>
