<?xml version="1.0" encoding="utf-8"?>
<!-- Generator: Adobe Illustrator 22.1.0, SVG Export Plug-In . SVG Version: 6.00 Build 0)  -->
<svg version="1.1" id="Capa_1" xmlns="http://www.w3.org/2000/svg" xmlns:xlink="http://www.w3.org/1999/xlink" x="0px" y="0px"
	 viewBox="0 0 480 480" style="enable-background:new 0 0 480 480;" xml:space="preserve">
<style type="text/css">
	.st0{fill:#FF6F00;}
	.st1{fill:#FFA253;}
</style>
<g>
	<g>
		<path class="st0" d="M432,368h-16V264c0-4.4-3.6-8-8-8h-16V24c0-4.4-3.6-8-8-8H128c-4.4,0-8,3.6-8,8v48c0,4.4,3.6,8,8,8h40v41.1
			c-12.6,3.3-21.9,13.8-23.6,26.7L107,177.8c-1.9,1.5-3,3.8-3,6.2v32c0,4.4,3.6,8,8,8s8-3.6,8-8v-28.2l27.3-21.9
			c7.6,15.8,26.6,22.5,42.4,14.9c6.5-3.1,11.8-8.4,14.9-14.9l27.3,21.9V216c0,4.4,3.6,8,8,8s8-3.6,8-8v-32c0-2.4-1.1-4.7-3-6.2
			l-37.4-29.9c-1.7-12.9-11-23.4-23.6-26.7V80h144v176h-64c-4.4,0-8,3.6-8,8v104h-32V264c0-4.4-3.6-8-8-8H72c-4.4,0-8,3.6-8,8v104
			H48c-26.5,0-48,21.5-48,48s21.5,48,48,48h384c26.5,0,48-21.5,48-48S458.5,368,432,368z M152,64h-16V32h16V64z M192,152
			c0,8.8-7.2,16-16,16s-16-7.2-16-16s7.2-16,16-16S192,143.2,192,152z M184,64h-16V32h16V64z M200,64V32h176v32H200z M376,80v176
			h-32V80H376z M320,272h32v32h-32V272z M272,272h32v40c0,4.4,3.6,8,8,8h48c4.4,0,8-3.6,8-8v-40h32v96H272V272z M128,272h32v32h-32
			V272z M80,272h32v40c0,4.4,3.6,8,8,8h48c4.4,0,8-3.6,8-8v-40h32v96H80V272z M432,448H48c-17.7,0-32-14.3-32-32s14.3-32,32-32h384
			c17.7,0,32,14.3,32,32S449.7,448,432,448z"/>
	</g>
</g>
<g>
	<g>
		<path class="st0" d="M48,392c-13.3,0-24,10.7-24,24s10.7,24,24,24s24-10.7,24-24S61.3,392,48,392z M48,424c-4.4,0-8-3.6-8-8
			s3.6-8,8-8s8,3.6,8,8S52.4,424,48,424z"/>
	</g>
</g>
<g>
	<g>
		<path class="st0" d="M112,392c-13.3,0-24,10.7-24,24s10.7,24,24,24s24-10.7,24-24S125.3,392,112,392z M112,424c-4.4,0-8-3.6-8-8
			s3.6-8,8-8s8,3.6,8,8S116.4,424,112,424z"/>
	</g>
</g>
<g>
	<g>
		<path class="st0" d="M176,392c-13.3,0-24,10.7-24,24s10.7,24,24,24s24-10.7,24-24S189.3,392,176,392z M176,424c-4.4,0-8-3.6-8-8
			s3.6-8,8-8s8,3.6,8,8S180.4,424,176,424z"/>
	</g>
</g>
<g>
	<g>
		<path class="st0" d="M240,392c-13.3,0-24,10.7-24,24s10.7,24,24,24s24-10.7,24-24S253.3,392,240,392z M240,424c-4.4,0-8-3.6-8-8
			s3.6-8,8-8s8,3.6,8,8S244.4,424,240,424z"/>
	</g>
</g>
<g>
	<g>
		<path class="st0" d="M304,392c-13.3,0-24,10.7-24,24s10.7,24,24,24s24-10.7,24-24S317.3,392,304,392z M304,424c-4.4,0-8-3.6-8-8
			s3.6-8,8-8s8,3.6,8,8S308.4,424,304,424z"/>
	</g>
</g>
<g>
	<g>
		<path class="st0" d="M368,392c-13.3,0-24,10.7-24,24s10.7,24,24,24s24-10.7,24-24S381.3,392,368,392z M368,424c-4.4,0-8-3.6-8-8
			s3.6-8,8-8s8,3.6,8,8S372.4,424,368,424z"/>
	</g>
</g>
<g>
	<g>
		<path class="st0" d="M432,392c-13.3,0-24,10.7-24,24s10.7,24,24,24s24-10.7,24-24S445.3,392,432,392z M432,424c-4.4,0-8-3.6-8-8
			s3.6-8,8-8s8,3.6,8,8S436.4,424,432,424z"/>
	</g>
</g>
<g>
	<g>
		<path class="st0" d="M192,336h-16c-4.4,0-8,3.6-8,8s3.6,8,8,8h16c4.4,0,8-3.6,8-8S196.4,336,192,336z"/>
	</g>
</g>
<g>
	<g>
		<path class="st0" d="M384,336h-16c-4.4,0-8,3.6-8,8s3.6,8,8,8h16c4.4,0,8-3.6,8-8S388.4,336,384,336z"/>
	</g>
</g>
<rect x="-274" y="25.5" class="st0" width="150" height="94"/>
<rect x="-282" y="146.5" class="st1" width="150" height="94"/>
</svg>
