<svg xmlns="http://www.w3.org/2000/svg" viewBox="0 0 260 260"><defs><style>.cls-1{fill:#ffd200;}</style></defs><title>Asset 2</title><g id="Layer_2" data-name="Layer 2"><g id="Layer_1-2" data-name="Layer 1"><circle class="cls-1" cx="130" cy="130" r="130"/><path id="_Compound_Path_" data-name=" Compound Path " d="M53.65,107.1a11.21,11.21,0,0,0-3.34-8.39,12.36,12.36,0,0,0-8.93-3h-15l-12.79,35H28.74A24,24,0,0,0,43,125.57a26.19,26.19,0,0,0,9.38-12.4A17.32,17.32,0,0,0,53.65,107.1Zm-9.11,6.07a14.14,14.14,0,0,1-5.23,6.75,13,13,0,0,1-7.75,2.76H24.49l7-19h7a6.71,6.71,0,0,1,4.83,1.74,6.08,6.08,0,0,1,1.82,4.52,9.21,9.21,0,0,1-.63,3.25Z"/><path id="_Path_" data-name=" Path " d="M74.82,117.18a14.81,14.81,0,0,0,8.78-3,16.52,16.52,0,0,0,6.08-7.63,10.82,10.82,0,0,0,.67-3.65,6.85,6.85,0,0,0-2-5.13,7.53,7.53,0,0,0-5.53-2.1H60.91L48.12,130.7h8l9.84-27H79.74c1.25,0,1.89.58,1.89,1.8A3.4,3.4,0,0,1,80.35,108a3.9,3.9,0,0,1-2.61,1.15H68.53l-6.47,8,7.51,13.52H80.69L73,117.18Z"/><polygon id="_Path_2" data-name=" Path 2" points="111.06 95.64 82.75 130.7 91.77 130.7 109.55 108.68 110.67 122.68 99.19 122.68 99.79 130.7 120.33 130.7 117.56 95.64 111.06 95.64"/><polygon id="_Path_3" data-name=" Path 3" points="157.63 95.64 147.58 95.64 136.22 106.16 132.54 95.64 122.55 95.64 129.2 114.42 123.31 130.7 131.3 130.7 137.19 114.48 157.63 95.64"/><polygon id="_Path_4" data-name=" Path 4" points="162.68 95.64 134.37 130.7 143.39 130.7 161.16 108.68 162.28 122.68 150.8 122.68 151.41 130.7 171.94 130.7 169.18 95.64 162.68 95.64"/><path id="_Path_5" data-name=" Path 5" d="M196.49,109.16l-6.47,8h8.5l-2,5.5h-7A6.72,6.72,0,0,1,184.7,121a6.06,6.06,0,0,1-1.85-4.53,9.75,9.75,0,0,1,.61-3.25,14.45,14.45,0,0,1,5.28-6.74,13,13,0,0,1,7.75-2.77H208l6.41-8H199.25A23.94,23.94,0,0,0,185,100.78a26.72,26.72,0,0,0-9.53,12.39,17.81,17.81,0,0,0-1.1,6.08,11.15,11.15,0,0,0,3.34,8.38,12.34,12.34,0,0,0,8.94,3h15l7.87-21.54Z"/><polygon id="_Path_6" data-name=" Path 6" points="203.66 130.7 233.73 130.7 236.62 122.68 214.59 122.68 216.6 117.18 233.61 117.18 236.59 109.16 219.58 109.16 221.58 103.67 240.08 103.67 246.49 95.64 216.45 95.64 203.66 130.7"/><path id="_Path_10" data-name=" Path 10" class="cls-1" d="M38.46,103.66h-7l-7,19h7a13,13,0,0,0,7.75-2.76,14.14,14.14,0,0,0,5.23-6.75,9.21,9.21,0,0,0,.63-3.25,6.08,6.08,0,0,0-1.82-4.52A6.71,6.71,0,0,0,38.46,103.66Z"/><polygon points="237.76 137.2 13.55 137.2 23.09 149.45 232.37 149.45 237.76 137.2"/><path d="M194.72,158a7.13,7.13,0,0,0-.37-3.63h-5l-.28,1.86a25.67,25.67,0,0,1-.78,4.27,40.18,40.18,0,0,1-1.54,4.65h.42A8.45,8.45,0,0,0,194.72,158Z"/><path d="M179.87,158.32a31,31,0,0,0,.65-3.95h-16.3a14.37,14.37,0,0,1-.47,3.86,19.39,19.39,0,0,1-17.59,13.93A10.31,10.31,0,0,1,136,158.23a16.52,16.52,0,0,1,1.67-3.86H121.32l-1.39,3.77a30.54,30.54,0,0,0-1,6.91v3a23.31,23.31,0,0,0,2.14,8.41H62.22l60.35,2.46a20.54,20.54,0,0,0,8.59,7.29H85.8s57.48,2.18,57.48,2.09A42.13,42.13,0,0,0,179.87,158.32Z"/><path d="M148.43,165.15A8.45,8.45,0,0,0,156,158a7,7,0,0,0-.37-3.63H145.09a8.79,8.79,0,0,0-1.67,3.63,5.53,5.53,0,0,0,3.65,6.91A6.25,6.25,0,0,0,148.43,165.15Z"/><path d="M202.52,158.32a19.4,19.4,0,0,1-17.59,13.93h-1.58a52.74,52.74,0,0,1-14.58,15.83s13.28.37,13.28.28a42.12,42.12,0,0,0,36.49-30,23.82,23.82,0,0,0,.65-3.85h-16.3A13.87,13.87,0,0,1,202.52,158.32Z"/></g></g></svg>