<?xml version="1.0" encoding="utf-8"?>
<!-- Generator: Adobe Illustrator 22.1.0, SVG Export Plug-In . SVG Version: 6.00 Build 0)  -->
<svg version="1.1" id="Layer_1" xmlns="http://www.w3.org/2000/svg" xmlns:xlink="http://www.w3.org/1999/xlink" x="0px" y="0px"
	 viewBox="0 0 36 28" style="enable-background:new 0 0 36 28;" xml:space="preserve">
<style type="text/css">
	.st0{fill:#FFD200;}
</style>
<title>florida</title>
<g id="Layer_2_1_">
	<g id="Layer_1-2">
		<path class="st0" d="M33,14l1-2l-3-4l-2-6l-3-1v2l-1-1H13l-1-2H0v1l1,2h6l4,2v1h2l2-1h3l4,4h1v3l-1,3l1,1v1l2,3h1v2h1l1,2l2,1l2,3
			h2l1-1v-1l1-3v-4L33,14z M35,22.8l-1,3v0.8L33.6,27h-1.1l-1.9-2.8l-1.9-1L27.6,21H27v-2h-1.5L24,16.7v-1.1l-0.9-0.9l0.9-2.6V8
			h-1.6l-4-4h-3.6l-2,1H12V4.4L7.2,2H1.6L1.1,1h10.3l1,2h12.2L27,5.4v-3l1.2,0.4l1.9,5.7l2.7,3.6l-1,1.9l3.2,5.2V22.8z"/>
	</g>
</g>
<rect x="-267" y="-126.5" class="st0" width="150" height="94"/>
</svg>
