<svg xmlns="http://www.w3.org/2000/svg" viewBox="0 0 36 28"><defs><style>.cls-1{fill:#ffa253;}</style></defs><title>florida</title><g id="Layer_2" data-name="Layer 2"><g id="Layer_1-2" data-name="Layer 1"><path class="cls-1" d="M33,14l1-2L31,8,29,2,26,1V3L25,2H13L12,0H0V1L1,3H7l4,2V6h2l2-1h3l4,4h1v3l-1,3,1,1v1l2,3h1v2h1l1,2,2,1,2,3h2l1-1V26l1-3V19Zm2,8.84-1,3v.75l-.41.41H32.53l-1.85-2.78-1.94-1L27.62,21H27V19H25.53L24,16.7V15.59l-.85-.86L24,12.16V8H22.41l-4-4H14.76l-2,1H12V4.38L7.24,2H1.62l-.5-1H11.38l1,2H24.59L27,5.41v-3l1.21.4L30.1,8.47l2.73,3.64-1,1.93L35,19.28v3.56Z"/></g></g></svg>