<?xml version="1.0" encoding="utf-8"?>
<!-- Generator: Adobe Illustrator 22.1.0, SVG Export Plug-In . SVG Version: 6.00 Build 0)  -->
<svg version="1.1" id="Capa_1" xmlns="http://www.w3.org/2000/svg" xmlns:xlink="http://www.w3.org/1999/xlink" x="0px" y="0px"
	 viewBox="0 0 480 480" style="enable-background:new 0 0 480 480;" xml:space="preserve">
<style type="text/css">
	.st0{fill:#FF6F00;}
	.st1{fill:#FFA253;}
</style>
<g>
	<g>
		<path class="st0" d="M392,387.8c-13.3,0-24,10.7-24,24s10.7,24,24,24s24-10.7,24-24S405.3,387.8,392,387.8z M392,419.8
			c-4.4,0-8-3.6-8-8s3.6-8,8-8s8,3.6,8,8S396.4,419.8,392,419.8z"/>
	</g>
</g>
<g>
	<g>
		<circle class="st0" cx="208" cy="419.8" r="16"/>
	</g>
</g>
<g>
	<g>
		<circle class="st0" cx="112" cy="419.8" r="16"/>
	</g>
</g>
<g>
	<g>
		<path class="st0" d="M479.8,282.6c0-0.3,0-0.6,0-0.8l-29.4-110.3c4.2-1.2,6.6-5.6,5.4-9.8c0-0.1-0.1-0.2-0.1-0.3l-8-24
			c-1.1-3.3-4.2-5.5-7.6-5.5H336v-48c0-4.4-3.6-8-8-8h-32c-4.4,0-8,3.6-8,8s3.6,8,8,8h24v248H32v-248h40c4.4,0,8-3.6,8-8s-3.6-8-8-8
			H24c-4.4,0-8,3.6-8,8v256H8c-4.4,0-8,3.6-8,8v32c0,4.4,3.6,8,8,8h24v24c0,4.4,3.6,8,8,8h24c-0.1,26.6,21.4,48.3,48,48.4
			c25.9,0.1,47-20.2,48.3-45.8c0.2,4.5,1.1,9.1,2.7,13.6c8.9,24.9,36.3,37.8,61.2,28.9c19.1-6.8,31.8-24.9,31.7-45.2h80.6
			c4.4,30.6,32.7,51.8,63.3,47.4c24.6-3.5,43.9-22.8,47.4-47.4H472c4.4,0,8-3.6,8-8v-128C480,283.4,479.9,283,479.8,282.6z
			 M32,371.8H16v-16h16V371.8z M461.6,275.8h-57.3L392,257.4v-85.6h41.8L461.6,275.8z M112,451.8c-17.7,0-32-14.3-32-32
			s14.3-32,32-32s32,14.3,32,32S129.7,451.8,112,451.8z M208,451.8c-17.7,0-32-14.3-32-32s14.3-32,32-32s32,14.3,32,32
			S225.7,451.8,208,451.8z M392,451.8c-22.1,0-40-17.9-40-40s17.9-40,40-40s40,17.9,40,40C432,433.9,414.1,451.8,392,451.8z
			 M464,339.8h-24v-24h24V339.8z M464,299.8h-32c-4.4,0-8,3.6-8,8v40c0,4.4,3.6,8,8,8h32v48h-16.6c-4.4-30.6-32.7-51.8-63.3-47.4
			c-24.6,3.5-43.9,22.8-47.4,47.4h-83.4c-8.9-24.9-36.3-37.8-61.2-28.9c-18.7,6.7-30.7,23.9-31.7,42.6
			c-1.3-25.4-22.2-45.6-47.9-45.7c-20.4-0.1-38.7,12.7-45.6,32H48v-48h280c4.4,0,8-3.6,8-8v-200h98.2l2.7,8H384c-4.4,0-8,3.6-8,8v96
			c0,1.6,0.5,3.1,1.3,4.4l16,24c1.5,2.2,4,3.6,6.7,3.6h64V299.8z"/>
	</g>
</g>
<g>
	<g>
		<path class="st0" d="M184,11.8c-53,0-96,43-96,96c0,4.1,1,100.3,90.3,189.7c3.1,3.1,8.2,3.1,11.3,0C279,208.1,280,111.9,280,107.8
			C280,54.8,237,11.8,184,11.8z M184,280.4c-78.8-82.8-80-171.6-80-172.5c0-44.2,35.8-80,80-80s80,35.8,80,80
			C264,108.7,263.1,197.3,184,280.4z"/>
	</g>
</g>
<g>
	<g>
		<path class="st0" d="M184,59.8c-26.5,0-48,21.5-48,48c0,26.5,21.5,48,48,48s48-21.5,48-48S210.5,59.8,184,59.8z M184,139.8
			c-17.7,0-32-14.3-32-32s14.3-32,32-32s32,14.3,32,32S201.7,139.8,184,139.8z"/>
	</g>
</g>
<rect x="-311" y="-6" class="st0" width="150" height="94"/>
<rect x="-319" y="115" class="st1" width="150" height="94"/>
</svg>
