<?xml version="1.0" encoding="iso-8859-1"?>
<!-- Generator: Adobe Illustrator 19.0.0, SVG Export Plug-In . SVG Version: 6.00 Build 0)  -->
<svg version="1.1" id="Capa_1" xmlns="http://www.w3.org/2000/svg" xmlns:xlink="http://www.w3.org/1999/xlink" x="0px" y="0px"
	 viewBox="0 0 480 480" style="enable-background:new 0 0 480 480;" xml:space="preserve">
<g>
	<g>
		<path d="M392,387.81c-13.255,0-24,10.745-24,24s10.745,24,24,24s24-10.745,24-24S405.255,387.81,392,387.81z M392,419.81
			c-4.418,0-8-3.582-8-8s3.582-8,8-8s8,3.582,8,8S396.418,419.81,392,419.81z"/>
	</g>
</g>
<g>
	<g>
		<circle cx="208" cy="419.81" r="16"/>
	</g>
</g>
<g>
	<g>
		<circle cx="112" cy="419.81" r="16"/>
	</g>
</g>
<g>
	<g>
		<path d="M479.752,282.586c0.016-0.28,0.016-0.56,0-0.84l-29.416-110.32c4.194-1.225,6.602-5.618,5.377-9.813
			c-0.032-0.111-0.067-0.222-0.105-0.331l-8-24c-1.09-3.274-4.157-5.48-7.608-5.472H336v-48c0-4.418-3.582-8-8-8h-32
			c-4.418,0-8,3.582-8,8s3.582,8,8,8h24v248H32v-248h40c4.418,0,8-3.582,8-8s-3.582-8-8-8H24c-4.418,0-8,3.582-8,8v256H8
			c-4.418,0-8,3.582-8,8v32c0,4.418,3.582,8,8,8h24v24c0,4.418,3.582,8,8,8h24c-0.104,26.615,21.388,48.276,48.003,48.38
			c25.863,0.101,47.042-20.191,48.315-45.76c0.238,4.548,1.125,9.137,2.739,13.645c8.91,24.892,36.312,37.849,61.204,28.939
			c19.082-6.83,31.795-24.937,31.739-45.204h80.64c4.391,30.574,32.736,51.8,63.311,47.409c24.574-3.529,43.88-22.836,47.409-47.409
			H472c4.418,0,8-3.582,8-8v-128C479.954,283.395,479.871,282.986,479.752,282.586z M32,371.81H16v-16h16V371.81z M461.6,275.81
			h-57.32L392,257.41v-85.6h41.848L461.6,275.81z M112,451.81c-17.673,0-32-14.327-32-32c0-17.673,14.327-32,32-32s32,14.327,32,32
			C144,437.483,129.673,451.81,112,451.81z M208,451.81c-17.673,0-32-14.327-32-32c0-17.673,14.327-32,32-32s32,14.327,32,32
			C240,437.483,225.673,451.81,208,451.81z M392,451.81c-22.091,0-40-17.909-40-40c0-22.091,17.909-40,40-40
			c22.091,0,40,17.909,40,40C431.974,433.89,414.08,451.783,392,451.81z M464,339.81h-24v-24h24V339.81z M464,299.81h-32
			c-4.418,0-8,3.582-8,8v40c0,4.418,3.582,8,8,8h32v48h-16.64c-4.391-30.575-32.736-51.8-63.311-47.409
			c-24.574,3.529-43.88,22.835-47.409,47.409H253.2c-8.91-24.893-36.312-37.849-61.204-28.939
			c-18.735,6.706-30.704,23.887-31.683,42.589c-1.315-25.352-22.232-45.553-47.932-45.653c-20.443-0.08-38.713,12.747-45.58,32.003
			H48v-48h280c4.418,0,8-3.582,8-8v-200h98.232l2.664,8H384c-4.418,0-8,3.582-8,8v96c0.003,1.58,0.47,3.124,1.344,4.44l16,24
			c1.484,2.225,3.982,3.56,6.656,3.56h64V299.81z"/>
	</g>
</g>
<g>
	<g>
		<path d="M184,11.81c-53.019,0-96,42.981-96,96c0,4.056,1.024,100.336,90.344,189.656c3.124,3.123,8.188,3.123,11.312,0
			C278.976,208.146,280,111.866,280,107.81C280,54.79,237.019,11.81,184,11.81z M184,280.354c-78.784-82.776-80-171.576-80-172.544
			c0-44.183,35.817-80,80-80s80,35.817,80,80C264,108.714,263.072,197.298,184,280.354z"/>
	</g>
</g>
<g>
	<g>
		<path d="M184,59.81c-26.499,0.026-47.974,21.501-48,48c0,26.51,21.49,48,48,48c26.51,0,48-21.49,48-48S210.51,59.81,184,59.81z
			 M184,139.81c-17.673,0-32-14.327-32-32s14.327-32,32-32s32,14.327,32,32S201.673,139.81,184,139.81z"/>
	</g>
</g>
<g>
</g>
<g>
</g>
<g>
</g>
<g>
</g>
<g>
</g>
<g>
</g>
<g>
</g>
<g>
</g>
<g>
</g>
<g>
</g>
<g>
</g>
<g>
</g>
<g>
</g>
<g>
</g>
<g>
</g>
</svg>
