<svg xmlns="http://www.w3.org/2000/svg" viewBox="0 0 138.17 26.43"><defs><style>.cls-1{fill:#ffd200;}</style></defs><title>logo_1</title><g id="Layer_2" data-name="Layer 2"><g id="PRINT_1" data-name="PRINT 1"><g id="_Group_" data-name="&lt;Group&gt;"><g id="_Group_2" data-name="&lt;Group&gt;"><g id="_Group_3" data-name="&lt;Group&gt;"><path id="_Compound_Path_" data-name="&lt;Compound Path&gt;" d="M17.41,6a3.68,3.68,0,0,0-1.1-2.76,4.07,4.07,0,0,0-2.94-1H8.42L4.21,13.77h5a7.88,7.88,0,0,0,4.7-1.69A8.63,8.63,0,0,0,17,8,5.71,5.71,0,0,0,17.41,6Zm-3,2a4.65,4.65,0,0,1-1.72,2.22,4.28,4.28,0,0,1-2.55.91H7.81l2.3-6.26h2.3A2.21,2.21,0,0,1,14,5.44a2,2,0,0,1,.6,1.49A3,3,0,0,1,14.39,8Z"/><path id="_Path_" data-name="&lt;Path&gt;" d="M24.38,9.32a4.88,4.88,0,0,0,2.89-1,5.43,5.43,0,0,0,2-2.51,3.51,3.51,0,0,0,.22-1.2,2.24,2.24,0,0,0-.67-1.69A2.47,2.47,0,0,0,27,2.23H19.8L15.59,13.77h2.64l3.24-8.9H26c.41,0,.62.19.62.59a1.11,1.11,0,0,1-.42.84,1.3,1.3,0,0,1-.86.38H22.31L20.18,9.32l2.47,4.45h3.66L23.78,9.32Z"/><polygon id="_Path_2" data-name="&lt;Path&gt;" points="36.31 2.23 26.99 13.77 29.96 13.77 35.81 6.52 36.18 11.13 32.4 11.13 32.6 13.77 39.36 13.77 38.45 2.23 36.31 2.23"/><polygon id="_Path_3" data-name="&lt;Path&gt;" points="51.64 2.23 48.33 2.23 44.59 5.69 43.38 2.23 40.09 2.23 42.28 8.41 40.34 13.77 42.97 13.77 44.91 8.43 51.64 2.23"/><polygon id="_Path_4" data-name="&lt;Path&gt;" points="53.3 2.23 43.98 13.77 46.95 13.77 52.8 6.52 53.17 11.13 49.39 11.13 49.59 13.77 56.35 13.77 55.44 2.23 53.3 2.23"/><path id="_Path_5" data-name="&lt;Path&gt;" d="M64.43,6.68,62.3,9.32h2.8l-.66,1.81h-2.3a2.21,2.21,0,0,1-1.59-.57,2,2,0,0,1-.61-1.49A3.25,3.25,0,0,1,60.14,8a4.76,4.76,0,0,1,1.74-2.22,4.26,4.26,0,0,1,2.55-.91h3.8l2.11-2.64h-5a7.86,7.86,0,0,0-4.7,1.69A8.8,8.8,0,0,0,57.5,8a5.91,5.91,0,0,0-.36,2,3.67,3.67,0,0,0,1.1,2.76,4.07,4.07,0,0,0,2.94,1h4.95l2.59-7.09Z"/><polygon id="_Path_6" data-name="&lt;Path&gt;" points="66.79 13.77 76.69 13.77 77.64 11.13 70.39 11.13 71.05 9.32 76.65 9.32 77.63 6.68 72.03 6.68 72.69 4.87 78.78 4.87 80.89 2.23 71 2.23 66.79 13.77"/><path id="_Path_7" data-name="&lt;Path&gt;" d="M116.91,14.91a.41.41,0,0,0-.32.13.48.48,0,0,0-.12.33.32.32,0,0,0,.13.27.49.49,0,0,0,.32.12.39.39,0,0,0,.28-.13.41.41,0,0,0,.13-.29.42.42,0,0,0-.13-.3A.39.39,0,0,0,116.91,14.91Z"/><path id="_Path_8" data-name="&lt;Path&gt;" d="M120.85,10.29h1.75l.68-1.56h-2.43a3.41,3.41,0,0,0-3.41,3.41,3.4,3.4,0,0,0,3.41,3.4h2.43V14h-2.43a1.85,1.85,0,0,1-1.31-3.16A1.79,1.79,0,0,1,120.85,10.29Z"/><path id="_Compound_Path_2" data-name="&lt;Compound Path&gt;" d="M127.08,8.73a3.41,3.41,0,0,0-3.41,3.41,3.41,3.41,0,1,0,5.82-2.41A3.28,3.28,0,0,0,127.08,8.73Zm1.31,4.72a1.85,1.85,0,1,1-1.31-3.16,1.85,1.85,0,0,1,1.31,3.16Z"/><polygon id="_Path_9" data-name="&lt;Path&gt;" points="136.62 8.73 134.52 12.91 132.43 8.73 130.87 8.73 130.87 15.54 132.43 15.54 132.43 12.46 134.04 15.54 135.01 15.54 136.62 12.46 136.62 15.54 138.17 15.54 138.17 8.73 136.62 8.73"/></g><g id="_Group_4" data-name="&lt;Group&gt;"><path id="_Path_10" data-name="&lt;Path&gt;" class="cls-1" d="M12.41,4.87h-2.3l-2.3,6.26h2.31a4.28,4.28,0,0,0,2.55-.91A4.65,4.65,0,0,0,14.39,8a3,3,0,0,0,.21-1.07A2,2,0,0,0,14,5.44,2.21,2.21,0,0,0,12.41,4.87Z"/><polygon id="_Path_11" data-name="&lt;Path&gt;" class="cls-1" points="85.79 13.77 87.41 9.32 93.02 9.32 93.99 6.68 88.39 6.68 89.03 4.87 96.3 4.87 97.26 2.23 87.36 2.23 83.15 13.77 85.79 13.77"/><path id="_Compound_Path_3" data-name="&lt;Compound Path&gt;" class="cls-1" d="M114.46,18.09,113.27,2.23h-2.14l-7.19,8.9H97.31l3.24-8.9H97.92L93.71,13.77h11.06l5.86-7.26.65,8.94H78.81L84.59,0,5.62.07,0,15.46l16.62,2.63ZM80.89,2.23,78.78,4.87H72.69L72,6.68h5.6l-1,2.64h-5.6l-.66,1.81h7.25l-1,2.64h-9.9L71,2.23ZM57.5,8a8.8,8.8,0,0,1,3.19-4.08,7.86,7.86,0,0,1,4.7-1.69h5L68.23,4.87h-3.8a4.26,4.26,0,0,0-2.55.91A4.76,4.76,0,0,0,60.14,8a3.25,3.25,0,0,0-.2,1.07,2,2,0,0,0,.61,1.49,2.21,2.21,0,0,0,1.59.57h2.3l.66-1.81H62.3l2.13-2.64h4.29l-2.59,7.09H61.18a4.07,4.07,0,0,1-2.94-1A3.67,3.67,0,0,1,57.14,10,5.91,5.91,0,0,1,57.5,8ZM55.44,2.23l.91,11.54H49.59l-.2-2.64h3.78L52.8,6.52,47,13.77H44L53.3,2.23Zm-12.06,0,1.21,3.46,3.74-3.46h3.31l-6.73,6.2L43,13.77H40.33l2-5.36L40.09,2.23Zm-4.93,0,.91,11.54H32.6l-.2-2.64h3.78l-.37-4.61L30,13.77H27L36.31,2.23ZM13.86,12.08a7.88,7.88,0,0,1-4.7,1.69H4.21L8.42,2.23h4.95a4.07,4.07,0,0,1,2.94,1A3.68,3.68,0,0,1,17.41,6,5.71,5.71,0,0,1,17,8,8.63,8.63,0,0,1,13.86,12.08ZM19.8,2.23H27a2.47,2.47,0,0,1,1.81.65,2.24,2.24,0,0,1,.67,1.69,3.51,3.51,0,0,1-.22,1.2,5.43,5.43,0,0,1-2,2.51,4.88,4.88,0,0,1-2.89,1h-.6l2.53,4.45H22.65L20.18,9.32l2.13-2.64h3.05a1.3,1.3,0,0,0,.86-.38,1.11,1.11,0,0,0,.42-.84c0-.4-.21-.59-.62-.59H21.47l-3.24,8.9H15.59Z"/><path id="_Path_12" data-name="&lt;Path&gt;" class="cls-1" d="M33.65,19.55a6.62,6.62,0,0,1-.16.92h0a8.84,8.84,0,0,1-.33,1h.08a1.81,1.81,0,0,0,1.62-1.54,1.43,1.43,0,0,0-.08-.78H33.71Z"/><path id="_Path_13" data-name="&lt;Path&gt;" class="cls-1" d="M31.81,19.15H28.29a2.71,2.71,0,0,1-.09.83,4.2,4.2,0,0,1-3.8,3,2.21,2.21,0,0,1-2.18-3,3.18,3.18,0,0,1,.35-.83H1.81L18.75,20v0a6.11,6.11,0,0,0-.22,1.49H2.75l15.79.64A5,5,0,0,0,19,23.9H6.33l13,.53A4.48,4.48,0,0,0,21.17,26H11.4s12.39.47,12.39.45A9.1,9.1,0,0,0,31.67,20C31.74,19.69,31.77,19.42,31.81,19.15Z"/><path id="_Path_14" data-name="&lt;Path&gt;" class="cls-1" d="M23.81,19.93a1.19,1.19,0,0,0,1.08,1.54,1.81,1.81,0,0,0,1.62-1.54,1.43,1.43,0,0,0-.08-.78H24.17A1.86,1.86,0,0,0,23.81,19.93Z"/><path id="_Path_15" data-name="&lt;Path&gt;" class="cls-1" d="M36.55,20a4.2,4.2,0,0,1-3.8,3l-.33,0a11.4,11.4,0,0,1-3.15,3.41s2.87.08,2.87.06A9.1,9.1,0,0,0,40,20a6.54,6.54,0,0,0,.14-.83H36.64A2.71,2.71,0,0,1,36.55,20Z"/><path id="_Path_16" data-name="&lt;Path&gt;" class="cls-1" d="M104.66,19.55a5.53,5.53,0,0,1-.17.92h0a8.84,8.84,0,0,1-.33,1h.09a1.82,1.82,0,0,0,1.62-1.54,1.54,1.54,0,0,0-.08-.78h-1.07Z"/><path id="_Path_17" data-name="&lt;Path&gt;" class="cls-1" d="M102.81,19.15H99.3a3.08,3.08,0,0,1-.1.83,4.18,4.18,0,0,1-3.79,3,2.22,2.22,0,0,1-2.19-3,3.6,3.6,0,0,1,.36-.83H90.06l-.3.81v0a6.63,6.63,0,0,0-.22,1.49v.64A5,5,0,0,0,90,23.9H77.33l13,.53A4.41,4.41,0,0,0,92.18,26H82.41s12.38.47,12.38.45A9.07,9.07,0,0,0,102.67,20,6.54,6.54,0,0,0,102.81,19.15Z"/><path id="_Path_18" data-name="&lt;Path&gt;" class="cls-1" d="M94.82,19.93a1.19,1.19,0,0,0,1.08,1.54,1.82,1.82,0,0,0,1.62-1.54,1.54,1.54,0,0,0-.08-.78H95.18A1.86,1.86,0,0,0,94.82,19.93Z"/><path id="_Path_19" data-name="&lt;Path&gt;" class="cls-1" d="M107.55,20a4.18,4.18,0,0,1-3.79,3l-.34,0a11.36,11.36,0,0,1-3.14,3.41s2.86.08,2.86.06A9.07,9.07,0,0,0,111,20a5.14,5.14,0,0,0,.14-.83h-3.51A3.08,3.08,0,0,1,107.55,20Z"/></g></g></g><polygon points="41.82 22.66 43.25 22.66 43.25 22.13 42.45 22.13 42.45 21.02 43.06 21.02 43.06 20.5 42.45 20.5 42.45 20.18 43.25 20.18 43.25 19.65 41.82 19.65 41.82 22.66"/><polygon points="44.22 22.66 44.85 22.66 44.85 21.02 45.46 21.02 45.46 20.5 44.85 20.5 44.85 20.18 45.65 20.18 45.65 19.65 44.22 19.65 44.22 22.66"/><polygon points="46.51 22.66 47.14 22.66 47.14 21.02 47.75 21.02 47.75 20.5 47.14 20.5 47.14 20.18 47.94 20.18 47.94 19.65 46.51 19.65 46.51 22.66"/><rect x="48.8" y="19.65" width="0.62" height="3.02"/><path d="M50.55,20.45a4.55,4.55,0,0,0,0,.71,4.72,4.72,0,0,0,0,.71.77.77,0,0,0,.81.79H52v-.52h-.61c-.06,0-.16,0-.21-.39a5.41,5.41,0,0,1,0-.59,5.28,5.28,0,0,1,0-.59c.05-.4.15-.4.21-.4H52v-.52h-.61C50.89,19.65,50.61,19.92,50.55,20.45Z"/><rect x="52.9" y="19.65" width="0.62" height="3.02"/><polygon points="54.68 22.66 56.1 22.66 56.1 22.13 55.3 22.13 55.3 21.02 55.91 21.02 55.91 20.5 55.3 20.5 55.3 20.18 56.1 20.18 56.1 19.65 54.68 19.65 54.68 22.66"/><path d="M58,19.65h-.88v3h.61V20.17h.2c.06,0,.13,0,.17.27a3.28,3.28,0,0,1,0,.56v1.66h.62V21a4.76,4.76,0,0,0-.06-.72A.64.64,0,0,0,58,19.65Z"/><path d="M59.8,20.45a6.22,6.22,0,0,0,0,.71,6.54,6.54,0,0,0,0,.71.78.78,0,0,0,.82.79h.61v-.52h-.61c-.06,0-.16,0-.21-.39a5.41,5.41,0,0,1,0-.59,5.28,5.28,0,0,1,0-.59c.05-.4.15-.4.21-.4h.61v-.52h-.61C60.15,19.65,59.87,19.92,59.8,20.45Z"/><polygon points="62.85 20.55 62.54 19.65 61.89 19.65 62.53 21.31 62.53 22.66 63.15 22.66 63.15 21.31 63.8 19.65 63.16 19.65 62.85 20.55"/><rect x="66.35" y="19.65" width="0.62" height="3.02"/><path d="M69,19.65h-.88v3h.62V20.17h.19c.06,0,.14,0,.17.27a3.28,3.28,0,0,1,0,.56v1.66h.62V21a4.67,4.67,0,0,0,0-.72A.65.65,0,0,0,69,19.65Z"/><path d="M73.73,19.79l-.12.1-.13-.1a.47.47,0,0,0-.36-.14h-.54v3h.62v-2.4l0,0c.18.14.25.19.37.19s.18,0,.36-.19l0,0v2.4h.62v-3h-.55A.47.47,0,0,0,73.73,19.79Z"/><path d="M76.57,19.59q-.7,0-.81.84a4.64,4.64,0,0,0-.05.73,4.8,4.8,0,0,0,.05.73c.07.55.34.84.81.84s.75-.29.82-.84a6.56,6.56,0,0,0,0-.73,6.25,6.25,0,0,0,0-.73C77.32,19.87,77,19.59,76.57,19.59Zm0,2.61c-.06,0-.15,0-.2-.44a3.7,3.7,0,0,1,0-.6,3.74,3.74,0,0,1,0-.61c0-.44.14-.44.2-.44s.15,0,.2.44a3.74,3.74,0,0,1,0,.61,3.62,3.62,0,0,1,0,.6C76.72,22.2,76.63,22.2,76.57,22.2Z"/><polygon points="78.27 20.18 78.89 20.18 78.89 22.66 79.51 22.66 79.51 20.18 80.13 20.18 80.13 19.65 78.27 19.65 78.27 20.18"/><rect x="81.05" y="19.65" width="0.62" height="3.02"/><path d="M83.61,19.59c-.47,0-.75.28-.82.84a6.4,6.4,0,0,0-.05.73,6.56,6.56,0,0,0,.05.73c.07.55.35.84.82.84s.74-.29.81-.84a4.8,4.8,0,0,0,0-.73,4.72,4.72,0,0,0,0-.73Q84.32,19.59,83.61,19.59Zm0,2.61c-.06,0-.15,0-.21-.44a5.47,5.47,0,0,1,0-.6,5.66,5.66,0,0,1,0-.61c.06-.44.15-.44.21-.44s.15,0,.2.44a3.76,3.76,0,0,1,0,.61,3.7,3.7,0,0,1,0,.6C83.76,22.2,83.67,22.2,83.61,22.2Z"/><path d="M87.12,20.27a.64.64,0,0,0-.7-.62h-.88v3h.61V20.17h.19c.07,0,.14,0,.18.27a3.2,3.2,0,0,1,0,.56v1.66h.62V21A4.76,4.76,0,0,0,87.12,20.27Z"/></g></g></svg>