<?xml version="1.0" encoding="utf-8"?>
<!-- Generator: Adobe Illustrator 22.1.0, SVG Export Plug-In . SVG Version: 6.00 Build 0)  -->
<svg version="1.1" id="Capa_1" xmlns="http://www.w3.org/2000/svg" xmlns:xlink="http://www.w3.org/1999/xlink" x="0px" y="0px"
	 viewBox="0 0 512 512" style="enable-background:new 0 0 512 512;" xml:space="preserve">
<style type="text/css">
	.st0{fill:#FFD200;}
	.st1{fill:#FF6F00;}
	.st2{fill:#FFA253;}
</style>
<g>
	<g>
		<g>
			<rect x="224" y="32" class="st0" width="64" height="21.3"/>
			<rect x="149.3" y="384" class="st0" width="21.3" height="21.3"/>
			<rect x="149.3" y="341.3" class="st0" width="21.3" height="21.3"/>
			<rect x="192" y="384" class="st0" width="21.3" height="21.3"/>
			<path class="st0" d="M458.7,181.3c-14.7,0-37,5.1-53.3,20.4V32c0-17.7-14.3-32-32-32H138.7c-17.7,0-32,14.3-32,32v128h-32
				c-17.7,0-32,14.3-32,32v21.3c0,8.2,3.1,15.7,8.2,21.3c-5.1,5.7-8.2,13.1-8.2,21.3v21.3c0,8.2,3.1,15.7,8.2,21.3
				c-5.1,5.7-8.2,13.1-8.2,21.3v21.3c0,8.2,3.1,15.7,8.2,21.3c-5.1,5.7-8.2,13.1-8.2,21.3V405c0,17.7,14.3,32,32,32h32v43
				c0,17.7,14.3,32,32,32h234.7c17.7,0,32-14.3,32-32V248.6c1.7-22.8,19.3-41.9,42.7-44.8v297.5h21.3V192
				C469.3,186.1,464.6,181.3,458.7,181.3z M138.7,21.3h234.7c5.9,0,10.7,4.8,10.7,10.7v32H128V32C128,26.1,132.8,21.3,138.7,21.3z
				 M64,341.3V320c0-5.9,4.8-10.7,10.7-10.7h32V352h-32C68.8,352,64,347.2,64,341.3z M64,277.3V256c0-5.9,4.8-10.7,10.7-10.7h32V288
				h-32C68.8,288,64,283.2,64,277.3z M64,192c0-5.9,4.8-10.7,10.7-10.7h32V224h-32c-5.9,0-10.7-4.8-10.7-10.7
				C64,213.3,64,192,64,192z M74.7,416c-5.9,0-10.7-4.8-10.7-10.7V384c0-5.9,4.8-10.7,10.7-10.7h32V416H74.7z M373.3,490.7H138.7
				c-5.9,0-10.7-4.8-10.7-10.7v-32h256v32C384,485.9,379.2,490.7,373.3,490.7z M384,426.7H128v-64v-64v-64v-64V85.3h256V426.7z"/>
			<path class="st0" d="M256,149.3c-58.9,0-106.7,47.8-106.7,106.7S197.1,362.7,256,362.7c58.9-0.1,106.6-47.8,106.7-106.7
				C362.7,197.1,314.9,149.3,256,149.3z M256,341.3c-47.1,0-85.3-38.2-85.3-85.3s38.2-85.3,85.3-85.3c47.1,0.1,85.3,38.2,85.3,85.3
				S303.1,341.3,256,341.3z"/>
			<path class="st0" d="M256,224c5.9,0,10.7,4.8,10.7,10.7H288c0-13.9-8.9-25.8-21.3-30.2V192h-21.3v12.5
				c-12.4,4.4-21.3,16.2-21.3,30.2c0,17.7,14.3,32,32,32c5.9,0,10.7,4.8,10.7,10.7S261.9,288,256,288s-10.7-4.8-10.7-10.7H224
				c0,13.9,8.9,25.8,21.3,30.2V320h21.3v-12.5c12.4-4.4,21.3-16.2,21.3-30.2c0-17.7-14.3-32-32-32c-5.9,0-10.7-4.8-10.7-10.7
				C245.3,228.8,250.1,224,256,224z"/>
			<rect x="341.3" y="106.7" class="st0" width="21.3" height="21.3"/>
			<rect x="341.3" y="149.3" class="st0" width="21.3" height="21.3"/>
			<rect x="298.7" y="106.7" class="st0" width="21.3" height="21.3"/>
		</g>
	</g>
</g>
<rect x="-382" y="20.5" class="st1" width="150" height="94"/>
<rect x="-390" y="141.5" class="st2" width="150" height="94"/>
<rect x="-390" y="288" class="st0" width="150" height="94"/>
</svg>
