<svg xmlns="http://www.w3.org/2000/svg" viewBox="0 0 512 518.22"><defs><style>.cls-1,.cls-2{fill:#fff;}.cls-2{isolation:isolate;font-size:5px;font-family:Arial-BoldMT, Arial;font-weight:700;}</style></defs><title>pack</title><g id="Layer_2" data-name="Layer 2"><g id="Layer_1-2" data-name="Layer 1"><path class="cls-1" d="M405.33,0H106.66L0,106.67v384H512v-384Zm-8.85,21.34,85.35,85.33H316.44L302.22,21.34ZM213.33,128h85.33v61.48h0l-11.8-5.89-9.53-4.77-9.55,4.77L256,189.49l-11.8-5.9-9.54-4.77-9.53,4.77-11.8,5.9ZM280.59,21.34l14.22,85.33H217.17l14.22-85.33Zm-165.09,0h94.27l-14.22,85.33H30.16Zm375.16,448H21.33V128H192v74.67l21.33,10.67,21.33-10.67L256,213.34l21.33-10.67,21.33,10.67L320,202.67V128H490.66Z"/><path class="cls-1" d="M160,384H53.33a10.68,10.68,0,0,0,0,21.35H160A10.68,10.68,0,0,0,160,384Z"/><path class="cls-1" d="M106.66,426.68H53.33a10.66,10.66,0,1,0,0,21.31h53.33a10.66,10.66,0,1,0,0-21.31Z"/><text class="cls-2" transform="translate(0 516.34)">Created by lastspark</text></g></g></svg>