<?xml version="1.0" encoding="utf-8"?>
<!-- Generator: Adobe Illustrator 22.1.0, SVG Export Plug-In . SVG Version: 6.00 Build 0)  -->
<svg version="1.1" id="Layer_1" xmlns="http://www.w3.org/2000/svg" xmlns:xlink="http://www.w3.org/1999/xlink" x="0px" y="0px"
	 viewBox="0 0 512 512" style="enable-background:new 0 0 512 512;" xml:space="preserve">
<style type="text/css">
	.st0{fill:#FFD200;}
	.st1{fill:#FF6F00;}
	.st2{fill:#FFA253;}
</style>
<g>
	<g>
		<path class="st0" d="M504.5,136.3c-13.5,0-24.5-11-24.5-24.5c0-4.2-3.4-7.5-7.5-7.5s-7.5,3.4-7.5,7.5c0,13.5-11,24.5-24.5,24.5
			c-4.2,0-7.5,3.4-7.5,7.5s3.4,7.5,7.5,7.5c13.5,0,24.5,11,24.5,24.5c0,4.2,3.4,7.5,7.5,7.5s7.5-3.4,7.5-7.5
			c0-13.5,11-24.5,24.5-24.5c4.2,0,7.5-3.4,7.5-7.5S508.6,136.3,504.5,136.3z M472.4,152.7c-2.5-3.4-5.5-6.4-8.9-8.9
			c3.4-2.5,6.4-5.5,8.9-8.9c2.5,3.4,5.5,6.4,8.9,8.9C477.9,146.3,474.9,149.3,472.4,152.7z"/>
	</g>
</g>
<g>
	<g>
		<path class="st0" d="M71.6,136.3c-13.5,0-24.5-11-24.5-24.5c0-4.2-3.4-7.5-7.5-7.5s-7.5,3.4-7.5,7.5c0,13.5-11,24.5-24.5,24.5
			c-4.2,0-7.5,3.4-7.5,7.5s3.4,7.5,7.5,7.5c13.5,0,24.5,11,24.5,24.5c0,4.2,3.4,7.5,7.5,7.5s7.5-3.4,7.5-7.5
			c0-13.5,11-24.5,24.5-24.5c4.2,0,7.5-3.4,7.5-7.5S75.8,136.3,71.6,136.3z M39.6,152.7c-2.5-3.4-5.5-6.4-8.9-8.9
			c3.4-2.5,6.4-5.5,8.9-8.9c2.5,3.4,5.5,6.4,8.9,8.9C45.1,146.3,42,149.3,39.6,152.7z"/>
	</g>
</g>
<g>
	<g>
		<path class="st0" d="M296.1,40.1c-18,0-32.6-14.6-32.6-32.6c0-4.1-3.4-7.5-7.5-7.5s-7.5,3.4-7.5,7.5c0,18-14.6,32.6-32.6,32.6
			c-4.1,0-7.5,3.4-7.5,7.5s3.4,7.5,7.5,7.5c18,0,32.6,14.6,32.6,32.6c0,4.2,3.4,7.5,7.5,7.5c4.2,0,7.5-3.4,7.5-7.5
			c0-18,14.6-32.6,32.6-32.6c4.2,0,7.5-3.4,7.5-7.5S300.2,40.1,296.1,40.1z M256,62c-3.7-5.8-8.6-10.7-14.4-14.4
			c5.8-3.7,10.7-8.7,14.4-14.4c3.7,5.8,8.6,10.7,14.4,14.4C264.6,51.3,259.7,56.2,256,62z"/>
	</g>
</g>
<g>
	<g>
		<path class="st0" d="M412.5,253.5l-29.2-82.8c-2.2-6.2-8.1-10.4-14.6-10.4H141.4c-6.6,0-12.5,4.2-14.6,10.4l-29.2,82.8
			c-1.7,4.8,2,10,7.1,10h300.7c2.4,0,4.7-1.2,6.1-3.2C412.9,258.4,413.3,255.8,412.5,253.5z M115.2,248.5l25.7-72.8
			c0.1-0.2,0.3-0.3,0.5-0.3h227.2c0.2,0,0.4,0.1,0.5,0.3l25.7,72.8H115.2z"/>
	</g>
</g>
<g>
	<g>
		<path class="st0" d="M399.3,352.7c-26.7,0-47.6,13.9-47.6,31.6s20.9,31.6,47.6,31.6s47.6-13.9,47.6-31.6S426,352.7,399.3,352.7z
			 M399.3,400.8c-18.6,0-32.6-8.7-32.6-16.5s13.9-16.5,32.6-16.5c18.6,0,32.6,8.7,32.6,16.5S417.9,400.8,399.3,400.8z"/>
	</g>
</g>
<g>
	<g>
		<path class="st0" d="M110.7,352.7c-26.7,0-47.6,13.9-47.6,31.6s20.9,31.6,47.6,31.6s47.6-13.9,47.6-31.6S137.4,352.7,110.7,352.7z
			 M110.7,400.8c-18.6,0-32.6-8.7-32.6-16.5s13.9-16.5,32.6-16.5s32.6,8.7,32.6,16.5S129.4,400.8,110.7,400.8z"/>
	</g>
</g>
<g>
	<g>
		<path class="st0" d="M495.5,240.5h-40.1c-3.4,0-6.5,2.3-7.3,5.7l-5.3,21.1l-36.9-104.6c-5.6-15.8-20.6-26.4-37.3-26.4H141.4
			c-16.7,0-31.7,10.6-37.3,26.4L67.2,267.3l-5.3-21.1c-0.8-3.3-3.8-5.7-7.3-5.7H14.5c-4.1,0-7.5,3.4-7.5,7.5v32
			c0,4.2,3.4,7.5,7.5,7.5H56l-25.6,35.9c-4.8,6.8-7.4,14.7-7.4,23v93.9c0,13,6.3,24.6,16,31.8c0,0.1,0,0.2,0,0.3v24
			c0,8.6,7,15.5,15.5,15.5h48.1c8.6,0,15.5-7,15.5-15.5v-16.5h273.5v16.5c0,8.6,7,15.5,15.5,15.5h48.1c8.6,0,15.5-7,15.5-15.5v-24
			c0-0.1,0-0.2,0-0.3c9.7-7.2,16-18.8,16-31.8v-93.9c0-8.3-2.5-16.3-7.4-23L454,287.6h41.5c4.2,0,7.5-3.4,7.5-7.5V248
			C503,243.8,499.6,240.5,495.5,240.5z M22,272.5v-17h26.7l4.3,17H22z M103.2,496.5c0,0.3-0.2,0.5-0.5,0.5H54.6
			c-0.3,0-0.5-0.2-0.5-0.5V480h8.5h40.6C103.2,479.9,103.2,496.5,103.2,496.5z M455.9,496.5c0,0.3-0.2,0.5-0.5,0.5h-48.1
			c-0.3,0-0.5-0.2-0.5-0.5V480h40.6h8.5V496.5z M447.4,464.9H62.6c-10.9,0-20.2-7.2-23.4-17h431.5
			C467.6,457.7,458.3,464.9,447.4,464.9z M319.6,383.8v17H190.4v-17H319.6z M191.6,368.7c3.2-9.9,12.5-17,23.4-17h80.2
			c10.9,0,20.2,7.2,23.4,17H191.6z M319.6,415.8v17H190.4v-17H319.6z M467.4,332.2c3,4.2,4.6,9.1,4.6,14.3v86.4H334.7v-56.6
			c0-21.8-17.8-39.6-39.6-39.6h-80.2c-21.8,0-39.6,17.8-39.6,39.6v56.6H38.1v-86.4c0-5.1,1.6-10.1,4.6-14.3l31.9-44.6h276.7
			c4.2,0,7.5-3.4,7.5-7.5s-3.4-7.5-7.5-7.5h-270l37-104.9c3.5-9.8,12.8-16.4,23.1-16.4h227.2c10.4,0,19.7,6.6,23.1,16.4l37,104.9
			h-45.5c-4.2,0-7.5,3.4-7.5,7.5s3.4,7.5,7.5,7.5h52.2L467.4,332.2z M488,272.5h-31l4.3-17H488V272.5z"/>
	</g>
</g>
<g>
	<g>
		<path class="st0" d="M134.8,328.6H86.7c-4.2,0-7.5,3.4-7.5,7.5s3.4,7.5,7.5,7.5h48.1c4.1,0,7.5-3.4,7.5-7.5
			S138.9,328.6,134.8,328.6z"/>
	</g>
</g>
<g>
	<g>
		<path class="st0" d="M423.3,328.6h-48.1c-4.2,0-7.5,3.4-7.5,7.5s3.4,7.5,7.5,7.5h48.1c4.2,0,7.5-3.4,7.5-7.5
			S427.5,328.6,423.3,328.6z"/>
	</g>
</g>
<rect x="-240" y="7" class="st1" width="150" height="94"/>
<rect x="-248" y="128" class="st2" width="150" height="94"/>
<rect x="-254" y="256.5" class="st0" width="150" height="94"/>
</svg>
