<?xml version="1.0" encoding="utf-8"?>
<!-- Generator: Adobe Illustrator 22.1.0, SVG Export Plug-In . SVG Version: 6.00 Build 0)  -->
<svg version="1.1" id="Capa_1" xmlns="http://www.w3.org/2000/svg" xmlns:xlink="http://www.w3.org/1999/xlink" x="0px" y="0px"
	 viewBox="0 0 496 496" style="enable-background:new 0 0 496 496;" xml:space="preserve">
<style type="text/css">
	.st0{fill:#FF6F00;}
	.st1{fill:#FFA253;}
</style>
<g>
	<g>
		<path class="st0" d="M472,192H326.4c-31.2,0-57.6,22.4-63.2,52.8l-8,42.4V192h24c4.8,0,8-3.2,8-8v-8h24c4.8,0,8-3.2,8-8V24
			c0-4.8-3.2-8-8-8h-56V8c0-4.8-3.2-8-8-8H56c-4.8,0-8,3.2-8,8v32c0,4.8,3.2,8,8,8h40v24c0,10.4,6.4,19.2,16,22.4V112H96v16h16v24
			c0,4.8-3.2,8-8,8s-8-3.2-8-8v-8H80v8c0,7.2,3.2,14.4,9.6,19.2L68.8,192H40c-4.8,0-8,3.2-8,8v136H8c-4.8,0-8,3.2-8,8v144
			c0,4.8,3.2,8,8,8h128c4.8,0,8-3.2,8-8V352h24c4.8,0,8-3.2,8-8V200c0-4.8-3.2-8-8-8h-28.8l-20.8-20.8c6.4-4.8,9.6-11.2,9.6-19.2
			v-24h16v-16h-16V94.4c9.6-3.2,16-12,16-22.4V48h80v96h-8c-4.8,0-8,3.2-8,8v224.8c-30.4,17.6-40.8,56.8-23.2,87.2
			c17.6,30.4,56.8,40.8,87.2,23.2c15.2-8.8,25.6-22.4,29.6-39.2h115.2c-4,21.6,9.6,42.4,31.2,47.2c21.6,4,42.4-9.6,47.2-31.2
			c0.8-2.4,0.8-5.6,0.8-8V216C496,202.4,485.6,192,472,192z M80,32H64V16h16V32z M96,32V16h16v16H96z M104,179.2l12.8,12.8H91.2
			L104,179.2z M48,240h16v64H48V240z M16,384h16v64H16V384z M128,480H16v-16h112V480z M48,448v-64h16v64H48z M80,448v-64h16v64H80z
			 M128,448h-16v-64h16V448z M128,368H16v-16h112V368z M160,336h-24H48v-16h112V336z M80,304v-64h16v64H80z M112,304v-64h16v64H112z
			 M160,304h-16v-64h16V304z M160,208v16H48v-16H160z M128,72c0,4.8-3.2,8-8,8s-8-3.2-8-8V48h16V72z M144,32h-16V16h16V32z M176,32
			h-16V16h16V32z M208,32h-16V16h16V32z M264,336h21.6l27.2,27.2V384h-30.4c-7.2-6.4-16-11.2-24.8-13.6L264,336z M272,176h-16v-16
			h16V176z M248,48c4.8,0,8-3.2,8-8v-8h48v128h-16v-8c0-4.8-3.2-8-8-8h-40V48H248z M224,16h16v16h-16V16z M224,160h16v48h-16V160z
			 M224,224h16v16h-16V224z M224,256h16v16h-16V256z M224,288h16v16h-16V288z M224,320h16v16h-16V320z M224,352h16v16
			c-5.6,0-10.4,0.8-16,2.4V352z M240,480c-26.4,0-48-21.6-48-48s21.6-48,48-48s48,21.6,48,48S266.4,480,240,480z M456,480
			c-13.6,0-24-10.4-24-24s10.4-24,24-24s24,10.4,24,24S469.6,480,456,480z M480,424c-17.6-13.6-41.6-10.4-55.2,7.2
			c0,0,0,0.8-0.8,0.8H304c0-11.2-3.2-22.4-8.8-32H480V424z M448,336v16h-56c-4.8,0-8-3.2-8-8s3.2-8,8-8H448z M432,320v-56
			c0-4.8,3.2-8,8-8s8,3.2,8,8v56H432z M480,384h-84.8l16-16H480V384z M480,352h-16v-88c0-13.6-10.4-24-24-24s-24,10.4-24,24v56h-24
			c-13.6,0-24,10.4-24,24c0,12,8.8,22.4,20.8,24l-16,16H328v-24c0-2.4-0.8-4-2.4-5.6L315.2,344l20.8-20.8l10.4,10.4l11.2-11.2
			l-32-32l-11.2,11.2l10.4,10.4L304,332.8l-10.4-10.4c-1.6-1.6-3.2-2.4-5.6-2.4h-21.6l12.8-72.8c4.8-22.4,24-39.2,47.2-39.2H472
			c4.8,0,8,3.2,8,8V352z"/>
	</g>
</g>
<g>
	<g>
		<path class="st0" d="M240,400c-17.6,0-32,14.4-32,32s14.4,32,32,32s32-14.4,32-32S257.6,400,240,400z M240,448
			c-8.8,0-16-7.2-16-16s7.2-16,16-16s16,7.2,16,16S248.8,448,240,448z"/>
	</g>
</g>
<g>
	<g>
		<rect x="448" y="448" class="st0" width="16" height="16"/>
	</g>
</g>
<rect x="-221" y="33.5" class="st0" width="150" height="94"/>
<rect x="-229" y="154.5" class="st1" width="150" height="94"/>
</svg>
