<?xml version="1.0" encoding="utf-8"?>
<!-- Generator: Adobe Illustrator 22.1.0, SVG Export Plug-In . SVG Version: 6.00 Build 0)  -->
<svg version="1.1" id="Layer_1" xmlns="http://www.w3.org/2000/svg" xmlns:xlink="http://www.w3.org/1999/xlink" x="0px" y="0px"
	 viewBox="0 0 1240 2560" style="enable-background:new 0 0 1240 2560;" xml:space="preserve">
<style type="text/css">
	.st0{fill:#5CA3D0;stroke:#5CA3D0;stroke-width:1.51;}
	.st1{fill:#589ECD;stroke:#589ECD;stroke-width:1.51;}
	.st2{fill:#67AAD4;stroke:#67AAD4;stroke-width:1.51;}
	.st3{fill:#77B3D8;stroke:#77B3D8;stroke-width:1.51;}
	.st4{fill:#66A7D1;stroke:#66A7D1;stroke-width:1.51;}
	.st5{fill:#4A8EC5;stroke:#4A8EC5;stroke-width:1.51;}
	.st6{fill:#519BCB;stroke:#519BCB;stroke-width:1.51;}
	.st7{fill:#4289C2;stroke:#4289C2;stroke-width:1.51;}
	.st8{fill:#659FCD;stroke:#659FCD;stroke-width:1.51;}
	.st9{fill:#7DB7DA;stroke:#7DB7DA;stroke-width:1.51;}
	.st10{fill:#7FB8DA;stroke:#7FB8DA;stroke-width:1.51;}
	.st11{fill:#4C88BF;stroke:#4C88BF;stroke-width:1.51;}
	.st12{fill:#5BA2D0;stroke:#5BA2D0;stroke-width:1.51;}
	.st13{fill:#5890C4;stroke:#5890C4;stroke-width:1.51;}
	.st14{fill:#7FB6D8;stroke:#7FB6D8;stroke-width:1.51;}
	.st15{fill:#73A9D2;stroke:#73A9D2;stroke-width:1.51;}
	.st16{fill:#4590C6;stroke:#4590C6;stroke-width:1.51;}
	.st17{fill:#4679B2;stroke:#4679B2;stroke-width:1.51;}
	.st18{fill:#569DCD;stroke:#569DCD;stroke-width:1.51;}
	.st19{fill:#90C0DF;stroke:#90C0DF;stroke-width:1.51;}
	.st20{fill:#90C2DE;stroke:#90C2DE;stroke-width:1.51;}
	.st21{fill:#9FCAE1;stroke:#9FCAE1;stroke-width:1.51;}
	.st22{fill:#4190C5;stroke:#4190C5;stroke-width:1.51;}
	.st23{fill:#61A5D1;stroke:#61A5D1;stroke-width:1.51;}
	.st24{fill:#5E8DC1;stroke:#5E8DC1;stroke-width:1.51;}
	.st25{fill:#73A4D0;stroke:#73A4D0;stroke-width:1.51;}
	.st26{fill:#6894C5;stroke:#6894C5;stroke-width:1.51;}
	.st27{fill:#78B2D6;stroke:#78B2D6;stroke-width:1.51;}
	.st28{fill:#397CB8;stroke:#397CB8;stroke-width:1.51;}
	.st29{fill:#577FB2;stroke:#577FB2;stroke-width:1.51;}
	.st30{fill:#2F78B7;stroke:#2F78B7;stroke-width:1.51;}
	.st31{fill:#6E9BCB;stroke:#6E9BCB;stroke-width:1.51;}
	.st32{fill:#A1CBE2;stroke:#A1CBE2;stroke-width:1.51;}
	.st33{fill:#7CA2D1;stroke:#7CA2D1;stroke-width:1.51;}
	.st34{fill:#9AC6E1;stroke:#9AC6E1;stroke-width:1.51;}
	.st35{fill:#7DB2D7;stroke:#7DB2D7;stroke-width:1.51;}
	.st36{fill:#3C73AD;stroke:#3C73AD;stroke-width:1.51;}
	.st37{fill:#8AB7DB;stroke:#8AB7DB;stroke-width:1.51;}
	.st38{fill:#5FA0CE;stroke:#5FA0CE;stroke-width:1.51;}
	.st39{fill:#9BC4E3;stroke:#9BC4E3;stroke-width:1.51;}
	.st40{fill:#3785BF;stroke:#3785BF;stroke-width:1.51;}
	.st41{fill:#2876B8;stroke:#2876B8;stroke-width:1.51;}
	.st42{fill:#A8CCE6;stroke:#A8CCE6;stroke-width:1.51;}
	.st43{fill:#8EC0DE;stroke:#8EC0DE;stroke-width:1.51;}
	.st44{fill:#71A9D2;stroke:#71A9D2;stroke-width:1.51;}
	.st45{fill:#4E74A4;stroke:#4E74A4;stroke-width:1.51;}
	.st46{fill:#678BBD;stroke:#678BBD;stroke-width:1.51;}
	.st47{fill:#90BEDE;stroke:#90BEDE;stroke-width:1.51;}
	.st48{fill:#4771A3;stroke:#4771A3;stroke-width:1.51;}
	.st49{fill:#A5CBE6;stroke:#A5CBE6;stroke-width:1.51;}
	.st50{fill:#B1D1E8;stroke:#B1D1E8;stroke-width:1.51;}
	.st51{fill:#286BAC;stroke:#286BAC;stroke-width:1.51;}
	.st52{fill:#3482BE;stroke:#3482BE;stroke-width:1.51;}
	.st53{fill:#34659C;stroke:#34659C;stroke-width:1.51;}
	.st54{fill:#406C9F;stroke:#406C9F;stroke-width:1.51;}
	.st55{fill:#456EA1;stroke:#456EA1;stroke-width:1.51;}
	.st56{fill:#2A629B;stroke:#2A629B;stroke-width:1.51;}
	.st57{fill:#7BA9D3;stroke:#7BA9D3;stroke-width:1.51;}
	.st58{fill:#759CCC;stroke:#759CCC;stroke-width:1.51;}
	.st59{fill:#5097CA;stroke:#5097CA;stroke-width:1.51;}
	.st60{fill:#B0D1E7;stroke:#B0D1E7;stroke-width:1.51;}
	.st61{fill:#BDD7EB;stroke:#BDD7EB;stroke-width:1.51;}
	.st62{fill:#A9CDE7;stroke:#A9CDE7;stroke-width:1.51;}
	.st63{fill:#B6D4E9;stroke:#B6D4E9;stroke-width:1.51;}
	.st64{fill:#ADD0E6;stroke:#ADD0E6;stroke-width:1.51;}
	.st65{fill:#A7CCE5;stroke:#A7CCE5;stroke-width:1.51;}
	.st66{fill:#3F8AC2;stroke:#3F8AC2;stroke-width:1.51;}
	.st67{fill:#5E7EAD;stroke:#5E7EAD;stroke-width:1.51;}
	.st68{fill:#667DA8;stroke:#667DA8;stroke-width:1.51;}
	.st69{fill:#5F7AA6;stroke:#5F7AA6;stroke-width:1.51;}
	.st70{fill:#79ABD4;stroke:#79ABD4;stroke-width:1.51;}
	.st71{fill:#5395C9;stroke:#5395C9;stroke-width:1.51;}
	.st72{fill:#95BFE0;stroke:#95BFE0;stroke-width:1.51;}
	.st73{fill:#A0C6E3;stroke:#A0C6E3;stroke-width:1.51;}
	.st74{fill:#2066AB;stroke:#2066AB;stroke-width:1.51;}
	.st75{fill:#256CAF;stroke:#256CAF;stroke-width:1.51;}
	.st76{fill:#8BB6DA;stroke:#8BB6DA;stroke-width:1.51;}
	.st77{fill:#85B3D8;stroke:#85B3D8;stroke-width:1.51;}
	.st78{fill:#8AB2D9;stroke:#8AB2D9;stroke-width:1.51;}
	.st79{fill:#33649B;stroke:#33649B;stroke-width:1.51;}
	.st80{fill:#39689D;stroke:#39689D;stroke-width:1.51;}
	.st81{fill:#5274A3;stroke:#5274A3;stroke-width:1.51;}
	.st82{fill:#88B2D9;stroke:#88B2D9;stroke-width:1.51;}
	.st83{fill:#7191C3;stroke:#7191C3;stroke-width:1.51;}
	.st84{fill:#689DCC;stroke:#689DCC;stroke-width:1.51;}
	.st85{fill:#317FBD;stroke:#317FBD;stroke-width:1.51;}
	.st86{fill:#92BBDE;stroke:#92BBDE;stroke-width:1.51;}
	.st87{fill:#295F97;stroke:#295F97;stroke-width:1.51;}
	.st88{fill:#236FB3;stroke:#236FB3;stroke-width:1.51;}
	.st89{fill:#255C96;stroke:#255C96;stroke-width:1.51;}
	.st90{fill:#2170B4;stroke:#2170B4;stroke-width:1.51;}
	.st91{fill:#B5D3E9;stroke:#B5D3E9;stroke-width:1.51;}
	.st92{fill:#C2DCED;stroke:#C2DCED;stroke-width:1.51;}
	.st93{fill:#B5D4E9;stroke:#B5D4E9;stroke-width:1.51;}
	.st94{fill:#B6D5EA;stroke:#B6D5EA;stroke-width:1.51;}
	.st95{fill:#CAE1F0;stroke:#CAE1F0;stroke-width:1.51;}
	.st96{fill:#CADEF0;stroke:#CADEF0;stroke-width:1.51;}
	.st97{fill:#83A8D4;stroke:#83A8D4;stroke-width:1.51;}
	.st98{fill:#B4D4EA;stroke:#B4D4EA;stroke-width:1.51;}
	.st99{fill:#8EB3DA;stroke:#8EB3DA;stroke-width:1.51;}
	.st100{fill:#88ACD6;stroke:#88ACD6;stroke-width:1.51;}
	.st101{fill:#205793;stroke:#205793;stroke-width:1.51;}
	.st102{fill:#6F86B5;stroke:#6F86B5;stroke-width:1.51;}
	.st103{fill:#82A3D1;stroke:#82A3D1;stroke-width:1.51;}
	.st104{fill:#4E72A2;stroke:#4E72A2;stroke-width:1.51;}
	.st105{fill:#4970A1;stroke:#4970A1;stroke-width:1.51;}
	.st106{fill:#38679C;stroke:#38679C;stroke-width:1.51;}
	.st107{fill:#2A6098;stroke:#2A6098;stroke-width:1.51;}
	.st108{fill:#3781BC;stroke:#3781BC;stroke-width:1.51;}
	.st109{fill:#BFD8EC;stroke:#BFD8EC;stroke-width:1.51;}
	.st110{fill:#A6CBE5;stroke:#A6CBE5;stroke-width:1.51;}
	.st111{fill:#15599E;stroke:#15599E;stroke-width:1.51;}
	.st112{fill:#1D5B9C;stroke:#1D5B9C;stroke-width:1.51;}
	.st113{fill:#A1C8E4;stroke:#A1C8E4;stroke-width:1.51;}
	.st114{fill:#5B78A5;stroke:#5B78A5;stroke-width:1.51;}
	.st115{fill:#7A92C3;stroke:#7A92C3;stroke-width:1.51;}
	.st116{fill:#97BFE0;stroke:#97BFE0;stroke-width:1.51;}
	.st117{fill:#1964AA;stroke:#1964AA;stroke-width:1.51;}
	.st118{fill:#4589C2;stroke:#4589C2;stroke-width:1.51;}
	.st119{fill:#4889C1;stroke:#4889C1;stroke-width:1.51;}
	.st120{fill:#6396C8;stroke:#6396C8;stroke-width:1.51;}
	.st121{fill:#92B7DC;stroke:#92B7DC;stroke-width:1.51;}
	.st122{fill:#7AA7D2;stroke:#7AA7D2;stroke-width:1.51;}
	.st123{fill:#7081AC;stroke:#7081AC;stroke-width:1.51;}
	.st124{fill:#7386B4;stroke:#7386B4;stroke-width:1.51;}
	.st125{fill:#98B9DC;stroke:#98B9DC;stroke-width:1.51;}
	.st126{fill:#B7D6EB;stroke:#B7D6EB;stroke-width:1.51;}
	.st127{fill:#A4C6E4;stroke:#A4C6E4;stroke-width:1.51;}
	.st128{fill:#C0DBEE;stroke:#C0DBEE;stroke-width:1.51;}
	.st129{fill:#C3DDED;stroke:#C3DDED;stroke-width:1.51;}
	.st130{fill:#ADCDE7;stroke:#ADCDE7;stroke-width:1.51;}
	.st131{fill:#C9DFEF;stroke:#C9DFEF;stroke-width:1.51;}
	.st132{fill:#B2D2EA;stroke:#B2D2EA;stroke-width:1.51;}
	.st133{fill:#6B7EAA;stroke:#6B7EAA;stroke-width:1.51;}
	.st134{fill:#6F80AC;stroke:#6F80AC;stroke-width:1.51;}
	.st135{fill:#1761A8;stroke:#1761A8;stroke-width:1.51;}
	.st136{fill:#1D5592;stroke:#1D5592;stroke-width:1.51;}
	.st137{fill:#BFD9EC;stroke:#BFD9EC;stroke-width:1.51;}
	.st138{fill:#D5E5F4;stroke:#D5E5F4;stroke-width:1.51;}
	.st139{fill:#BDD9EB;stroke:#BDD9EB;stroke-width:1.51;}
	.st140{fill:#94B9DC;stroke:#94B9DC;stroke-width:1.51;}
	.st141{fill:#89A9D5;stroke:#89A9D5;stroke-width:1.51;}
	.st142{fill:#879FCD;stroke:#879FCD;stroke-width:1.51;}
	.st143{fill:#A9C9E5;stroke:#A9C9E5;stroke-width:1.51;}
	.st144{fill:#A0C0E0;stroke:#A0C0E0;stroke-width:1.51;}
	.st145{fill:#6C97C8;stroke:#6C97C8;stroke-width:1.51;}
	.st146{fill:#4281BC;stroke:#4281BC;stroke-width:1.51;}
	.st147{fill:#2A72B3;stroke:#2A72B3;stroke-width:1.51;}
	.st148{fill:#7E9DCC;stroke:#7E9DCC;stroke-width:1.51;}
	.st149{fill:#4F85BD;stroke:#4F85BD;stroke-width:1.51;}
	.st150{fill:#154F8F;stroke:#154F8F;stroke-width:1.51;}
	.st151{fill:#235A94;stroke:#235A94;stroke-width:1.51;}
	.st152{fill:#125092;stroke:#125092;stroke-width:1.51;}
	.st153{fill:#1B66AD;stroke:#1B66AD;stroke-width:1.51;}
	.st154{fill:#89A6D3;stroke:#89A6D3;stroke-width:1.51;}
	.st155{fill:#A3C2E1;stroke:#A3C2E1;stroke-width:1.51;}
	.st156{fill:#D5E7F3;stroke:#D5E7F3;stroke-width:1.51;}
	.st157{fill:#CFE4F1;stroke:#CFE4F1;stroke-width:1.51;}
	.st158{fill:#B9D6EC;stroke:#B9D6EC;stroke-width:1.51;}
	.st159{fill:#A6C6E3;stroke:#A6C6E3;stroke-width:1.51;}
	.st160{fill:#9BB7DC;stroke:#9BB7DC;stroke-width:1.51;}
	.st161{fill:#D7E6F5;stroke:#D7E6F5;stroke-width:1.51;}
	.st162{fill:#0D4A8E;stroke:#0D4A8E;stroke-width:1.51;}
	.st163{fill:#2F75B4;stroke:#2F75B4;stroke-width:1.51;}
	.st164{fill:#0D5098;stroke:#0D5098;stroke-width:1.51;}
	.st165{fill:#D2E2F3;stroke:#D2E2F3;stroke-width:1.51;}
	.st166{fill:#ACCFE8;stroke:#ACCFE8;stroke-width:1.51;}
	.st167{fill:#D1E5F2;stroke:#D1E5F2;stroke-width:1.51;}
	.st168{fill:#CAE2F0;stroke:#CAE2F0;stroke-width:1.51;}
	.st169{fill:#628EC2;stroke:#628EC2;stroke-width:1.51;}
	.st170{fill:#2F6FAE;stroke:#2F6FAE;stroke-width:1.51;}
	.st171{fill:#688EC1;stroke:#688EC1;stroke-width:1.51;}
	.st172{fill:#B2D3EA;stroke:#B2D3EA;stroke-width:1.51;}
	.st173{fill:#8294C2;stroke:#8294C2;stroke-width:1.51;}
	.st174{fill:#7383AD;stroke:#7383AD;stroke-width:1.51;}
	.st175{fill:#677DA9;stroke:#677DA9;stroke-width:1.51;}
	.st176{fill:#C8DEEF;stroke:#C8DEEF;stroke-width:1.51;}
	.st177{fill:#D3E3F3;stroke:#D3E3F3;stroke-width:1.51;}
	.st178{fill:#E2EDF8;stroke:#E2EDF8;stroke-width:1.51;}
	.st179{fill:#447BB4;stroke:#447BB4;stroke-width:1.51;}
	.st180{fill:#7693C5;stroke:#7693C5;stroke-width:1.51;}
	.st181{fill:#7B8DB9;stroke:#7B8DB9;stroke-width:1.51;}
	.st182{fill:#155CA2;stroke:#155CA2;stroke-width:1.51;}
	.st183{fill:#094A91;stroke:#094A91;stroke-width:1.51;}
	.st184{fill:#124B8B;stroke:#124B8B;stroke-width:1.51;}
	.st185{fill:#93ACD6;stroke:#93ACD6;stroke-width:1.51;}
	.st186{fill:#99B3DA;stroke:#99B3DA;stroke-width:1.51;}
	.st187{fill:#9CB7DC;stroke:#9CB7DC;stroke-width:1.51;}
	.st188{fill:#A0BEDF;stroke:#A0BEDF;stroke-width:1.51;}
	.st189{fill:#AFCFE8;stroke:#AFCFE8;stroke-width:1.51;}
	.st190{fill:#7987AF;stroke:#7987AF;stroke-width:1.51;}
	.st191{fill:#0D4586;stroke:#0D4586;stroke-width:1.51;}
	.st192{fill:#9CC0E0;stroke:#9CC0E0;stroke-width:1.51;}
	.st193{fill:#D8E6F5;stroke:#D8E6F5;stroke-width:1.51;}
	.st194{fill:#99B8DC;stroke:#99B8DC;stroke-width:1.51;}
	.st195{fill:#8CA4D0;stroke:#8CA4D0;stroke-width:1.51;}
	.st196{fill:#899AC7;stroke:#899AC7;stroke-width:1.51;}
	.st197{fill:#DCE9F6;stroke:#DCE9F6;stroke-width:1.51;}
	.st198{fill:#E0ECF8;stroke:#E0ECF8;stroke-width:1.51;}
	.st199{fill:#91ADD6;stroke:#91ADD6;stroke-width:1.51;}
	.st200{fill:#DEEBF7;stroke:#DEEBF7;stroke-width:1.51;}
	.st201{fill:#9AB3DA;stroke:#9AB3DA;stroke-width:1.51;}
	.st202{fill:#7F99CA;stroke:#7F99CA;stroke-width:1.51;}
	.st203{fill:#879BC9;stroke:#879BC9;stroke-width:1.51;}
	.st204{fill:#6A88BA;stroke:#6A88BA;stroke-width:1.51;}
	.st205{fill:#6488BB;stroke:#6488BB;stroke-width:1.51;}
	.st206{fill:#E9F2FB;stroke:#E9F2FB;stroke-width:1.51;}
	.st207{fill:#ABCDE8;stroke:#ABCDE8;stroke-width:1.51;}
	.st208{fill:#ACCDE7;stroke:#ACCDE7;stroke-width:1.51;}
	.st209{fill:#92A8D3;stroke:#92A8D3;stroke-width:1.51;}
	.st210{fill:#9FC1E0;stroke:#9FC1E0;stroke-width:1.51;}
	.st211{fill:#8491BB;stroke:#8491BB;stroke-width:1.51;}
	.st212{fill:#7F8AB1;stroke:#7F8AB1;stroke-width:1.51;}
	.st213{fill:#7B87B0;stroke:#7B87B0;stroke-width:1.51;}
	.st214{fill:#7685AE;stroke:#7685AE;stroke-width:1.51;}
	.st215{fill:#527EB3;stroke:#527EB3;stroke-width:1.51;}
	.st216{fill:#90A3CF;stroke:#90A3CF;stroke-width:1.51;}
	.st217{fill:#9DB9DD;stroke:#9DB9DD;stroke-width:1.51;}
	.st218{fill:#4A74A8;stroke:#4A74A8;stroke-width:1.51;}
	.st219{fill:#768FC1;stroke:#768FC1;stroke-width:1.51;}
	.st220{fill:#7C90BF;stroke:#7C90BF;stroke-width:1.51;}
	.st221{fill:#E6EFFA;stroke:#E6EFFA;stroke-width:1.51;}
	.st222{fill:#E5EFFA;stroke:#E5EFFA;stroke-width:1.51;}
	.st223{fill:#9CB8DD;stroke:#9CB8DD;stroke-width:1.51;}
	.st224{fill:#2362A1;stroke:#2362A1;stroke-width:1.51;}
	.st225{fill:#0B4385;stroke:#0B4385;stroke-width:1.51;}
	.st226{fill:#093D7E;stroke:#093D7E;stroke-width:1.51;}
	.st227{fill:#CDE2F1;stroke:#CDE2F1;stroke-width:1.51;}
	.st228{fill:#E8F1FA;stroke:#E8F1FA;stroke-width:1.51;}
	.st229{fill:#0F5097;stroke:#0F5097;stroke-width:1.51;}
	.st230{fill:#98AFD7;stroke:#98AFD7;stroke-width:1.51;}
	.st231{fill:#093D7F;stroke:#093D7F;stroke-width:1.51;}
	.st232{fill:#083A79;stroke:#083A79;stroke-width:1.51;}
	.st233{fill:#5F7BA8;stroke:#5F7BA8;stroke-width:1.51;}
	.st234{fill:#92A2CE;stroke:#92A2CE;stroke-width:1.51;}
	.st235{fill:#8D9ECA;stroke:#8D9ECA;stroke-width:1.51;}
	.st236{fill:#8C97BF;stroke:#8C97BF;stroke-width:1.51;}
	.st237{fill:#808AB1;stroke:#808AB1;stroke-width:1.51;}
	.st238{fill:#7282AD;stroke:#7282AD;stroke-width:1.51;}
	.st239{fill:#5777A4;stroke:#5777A4;stroke-width:1.51;}
	.st240{fill:#3A699D;stroke:#3A699D;stroke-width:1.51;}
	.st241{fill:#8495C2;stroke:#8495C2;stroke-width:1.51;}
	.st242{fill:#205997;stroke:#205997;stroke-width:1.51;}
	.st243{fill:#093979;stroke:#093979;stroke-width:1.51;}
	.st244{fill:#EFF5FD;stroke:#EFF5FD;stroke-width:1.51;}
	.st245{fill:#E6F0FA;stroke:#E6F0FA;stroke-width:1.51;}
	.st246{fill:#EBF3FB;stroke:#EBF3FB;stroke-width:1.51;}
	.st247{fill:#EFF6FD;stroke:#EFF6FD;stroke-width:1.51;}
	.st248{fill:#CCE2F0;stroke:#CCE2F0;stroke-width:1.51;}
	.st249{fill:#B9D7EC;stroke:#B9D7EC;stroke-width:1.51;}
	.st250{fill:#96ACD5;stroke:#96ACD5;stroke-width:1.51;}
	.st251{fill:#94A6D1;stroke:#94A6D1;stroke-width:1.51;}
	.st252{fill:#0B468A;stroke:#0B468A;stroke-width:1.51;}
	.st253{fill:#083370;stroke:#083370;stroke-width:1.51;}
	.st254{fill:#6B84B2;stroke:#6B84B2;stroke-width:1.51;}
	.st255{fill:#11498A;stroke:#11498A;stroke-width:1.51;}
	.st256{fill:#093C7C;stroke:#093C7C;stroke-width:1.51;}
	.st257{fill:#3C6A9E;stroke:#3C6A9E;stroke-width:1.51;}
	.st258{fill:#4A70A1;stroke:#4A70A1;stroke-width:1.51;}
	.st259{fill:#A0BEE0;stroke:#A0BEE0;stroke-width:1.51;}
	.st260{fill:#7587B4;stroke:#7587B4;stroke-width:1.51;}
	.st261{fill:#8593BE;stroke:#8593BE;stroke-width:1.51;}
	.st262{fill:#8D9AC3;stroke:#8D9AC3;stroke-width:1.51;}
	.st263{fill:#F1F7FD;stroke:#F1F7FD;stroke-width:1.51;}
	.st264{fill:#F0F6FD;stroke:#F0F6FD;stroke-width:1.51;}
	.st265{fill:#E7F0FA;stroke:#E7F0FA;stroke-width:1.51;}
	.st266{fill:#C4DEEE;stroke:#C4DEEE;stroke-width:1.51;}
	.st267{fill:#95A7D2;stroke:#95A7D2;stroke-width:1.51;}
	.st268{fill:#96AAD3;stroke:#96AAD3;stroke-width:1.51;}
	.st269{fill:#7A88B1;stroke:#7A88B1;stroke-width:1.51;}
	.st270{fill:#8F9BC6;stroke:#8F9BC6;stroke-width:1.51;}
	.st271{fill:#9FBBDE;stroke:#9FBBDE;stroke-width:1.51;}
	.st272{fill:#BCD9ED;stroke:#BCD9ED;stroke-width:1.51;}
	.st273{fill:#E1EDF8;stroke:#E1EDF8;stroke-width:1.51;}
	.st274{fill:#878EB3;stroke:#878EB3;stroke-width:1.51;}
	.st275{fill:#828FB7;stroke:#828FB7;stroke-width:1.51;}
	.st276{fill:#F7FBFF;stroke:#F7FBFF;stroke-width:1.51;}
	.st277{fill:#F5FAFF;stroke:#F5FAFF;stroke-width:1.51;}
	.st278{fill:#93A5D0;stroke:#93A5D0;stroke-width:1.51;}
	.st279{fill:#98B0D8;stroke:#98B0D8;stroke-width:1.51;}
	.st280{fill:#D4E6F3;stroke:#D4E6F3;stroke-width:1.51;}
	.st281{fill:#BFDBED;stroke:#BFDBED;stroke-width:1.51;}
	.st282{fill:#275D96;stroke:#275D96;stroke-width:1.51;}
	.st283{fill:#093A7A;stroke:#093A7A;stroke-width:1.51;}
	.st284{fill:#3E6B9F;stroke:#3E6B9F;stroke-width:1.51;}
	.st285{fill:#5D7AA6;stroke:#5D7AA6;stroke-width:1.51;}
	.st286{fill:#858DB3;stroke:#858DB3;stroke-width:1.51;}
	.st287{fill:#8B95BD;stroke:#8B95BD;stroke-width:1.51;}
	.st288{fill:#1D5492;stroke:#1D5492;stroke-width:1.51;}
	.st289{fill:#08306B;stroke:#08306B;stroke-width:1.51;}
	.st290{fill:#8C97C0;stroke:#8C97C0;stroke-width:1.51;}
	.st291{fill:#093573;stroke:#093573;stroke-width:1.51;}
	.st292{fill:#093B7C;stroke:#093B7C;stroke-width:1.51;}
	.st293{fill:#7D89B0;stroke:#7D89B0;stroke-width:1.51;}
	.st294{fill:#275E97;stroke:#275E97;stroke-width:1.51;}
	.st295{fill:#7181AC;stroke:#7181AC;stroke-width:1.51;}
	.st296{fill:#F5F9FE;stroke:#F5F9FE;stroke-width:1.51;}
	.st297{fill:#F1F6FD;stroke:#F1F6FD;stroke-width:1.51;}
	.st298{fill:#D0E5F2;stroke:#D0E5F2;stroke-width:1.51;}
	.st299{fill:#AACAE5;stroke:#AACAE5;stroke-width:1.51;}
	.st300{fill:#0A4284;stroke:#0A4284;stroke-width:1.51;}
	.st301{fill:#878FB4;stroke:#878FB4;stroke-width:1.51;}
	.st302{fill:#7483AD;stroke:#7483AD;stroke-width:1.51;}
	.st303{fill:#7E89B1;stroke:#7E89B1;stroke-width:1.51;}
	.st304{fill:#4F73A2;stroke:#4F73A2;stroke-width:1.51;}
	.st305{fill:#7A87AF;stroke:#7A87AF;stroke-width:1.51;}
	.st306{fill:#093775;stroke:#093775;stroke-width:1.51;}
	.st307{fill:#164F8F;stroke:#164F8F;stroke-width:1.51;}
	.st308{fill:#848CB2;stroke:#848CB2;stroke-width:1.51;}
	.st309{fill:#6F80AB;stroke:#6F80AB;stroke-width:1.51;}
</style>
<path class="st0" d="M549,1377l-150,22l209,141L549,1377z"/>
<path class="st1" d="M399,1399l-55,74l264,67L399,1399z"/>
<path class="st2" d="M608,1540l82-247l-141,84L608,1540z"/>
<path class="st3" d="M501,1785l162-158l-55-87L501,1785z"/>
<path class="st4" d="M344,1473l157,312l107-245L344,1473z"/>
<path class="st5" d="M399,1399l-183,40l128,34L399,1399z"/>
<path class="st3" d="M860,1331l-170-38l-82,247L860,1331z"/>
<path class="st6" d="M549,1377l-19-221l-131,243L549,1377z"/>
<path class="st7" d="M399,1399l-76-257l-107,297L399,1399z"/>
<path class="st8" d="M305,1775l196,10l-157-312L305,1775z"/>
<path class="st9" d="M663,1627l197-296l-252,209L663,1627z"/>
<path class="st10" d="M501,1785l196-66l-34-92L501,1785z"/>
<path class="st11" d="M216,1439l-55,126l183-92L216,1439z"/>
<path class="st12" d="M690,1293l-160-137l19,221L690,1293z"/>
<path class="st13" d="M161,1565l144,210l39-302L161,1565z"/>
<path class="st14" d="M501,1785l-6,56l202-122L501,1785z"/>
<path class="st15" d="M305,1775l190,66l6-56L305,1775z"/>
<path class="st16" d="M530,1156l-207-14l76,257L530,1156z"/>
<path class="st17" d="M216,1439l-235,1l180,125L216,1439z"/>
<path class="st18" d="M764,1134l-214-69l-20,91L764,1134z"/>
<path class="st19" d="M975,1548l-115-217l-197,296L975,1548z"/>
<path class="st20" d="M697,1719l148,10l-182-102L697,1719z"/>
<path class="st21" d="M831,1905l14-176l-148-10L831,1905z"/>
<path class="st22" d="M530,1156l20-91l-227,77L530,1156z"/>
<path class="st23" d="M764,1134l-234,22l160,137L764,1134z"/>
<path class="st24" d="M161,1565l2,211l142-1L161,1565z"/>
<path class="st25" d="M305,1775l11,167l179-101L305,1775z"/>
<path class="st26" d="M163,1776l91,98l51-99L163,1776z"/>
<path class="st27" d="M860,1331l-96-197l-74,159L860,1331z"/>
<path class="st28" d="M323,1142l-199,42l92,255L323,1142z"/>
<path class="st29" d="M161,1565l-182,123l184,88L161,1565z"/>
<path class="st30" d="M284,999l-160,185l199-42L284,999z"/>
<path class="st31" d="M254,1874l62,68l-11-167L254,1874z"/>
<path class="st32" d="M771,1972l60-67l-134-186L771,1972z"/>
<path class="st33" d="M374,2092l-58-150l-74,188L374,2092z"/>
<path class="st34" d="M845,1729l130-181l-312,79L845,1729z"/>
<path class="st35" d="M860,1331l-20-223l-76,26L860,1331z"/>
<path class="st36" d="M124,1184l-143,256l235-1L124,1184z"/>
<path class="st37" d="M1043,1131l-203-23l20,223L1043,1131z"/>
<path class="st38" d="M764,1134l-47-140l-167,71L764,1134z"/>
<path class="st39" d="M975,1548l37-134l-152-83L975,1548z"/>
<path class="st40" d="M550,1065l-266-66l39,143L550,1065z"/>
<path class="st41" d="M262,948l22,51l101-141L262,948z"/>
<path class="st42" d="M845,1729l214-142l-84-39L845,1729z"/>
<path class="st43" d="M771,1972l-74-253l-202,122L771,1972z"/>
<path class="st44" d="M840,1108L717,994l47,140L840,1108z"/>
<path class="st45" d="M-75,1612l54,76l182-123L-75,1612z"/>
<path class="st46" d="M163,1776L24,1933l230-59L163,1776z"/>
<path class="st47" d="M509,2162l262-190l-276-131L509,2162z"/>
<path class="st48" d="M-19,1440l-56,172l236-47L-19,1440z"/>
<path class="st49" d="M975,1548l84,39l-47-173L975,1548z"/>
<path class="st50" d="M1011,1832l48-245l-214,142L1011,1832z"/>
<path class="st51" d="M284,999l-254,15l94,170L284,999z"/>
<path class="st52" d="M385,858L284,999l266,66L385,858z"/>
<path class="st53" d="M-65,1239l46,201l143-256L-65,1239z"/>
<path class="st54" d="M-178,1412l71,122l88-94L-178,1412z"/>
<path class="st55" d="M-19,1440l-88,94l32,78L-19,1440z"/>
<path class="st56" d="M30,1014l-95,225l189-55L30,1014z"/>
<path class="st57" d="M316,1942l58,150l121-251L316,1942z"/>
<path class="st58" d="M242,2130l74-188l-62-68L242,2130z"/>
<path class="st59" d="M717,994L584,881l-34,184L717,994z"/>
<path class="st60" d="M831,1905l180-73l-166-103L831,1905z"/>
<path class="st61" d="M995,2089l16-257l-180,73L995,2089z"/>
<path class="st62" d="M1059,1587l188-206l-235,33L1059,1587z"/>
<path class="st63" d="M1011,1832l97-184l-49-61L1011,1832z"/>
<path class="st64" d="M771,1972l20,83l40-150L771,1972z"/>
<path class="st65" d="M593,2188l198-133l-20-83L593,2188z"/>
<path class="st66" d="M584,881l-199-23l165,207L584,881z"/>
<path class="st67" d="M-21,1688l45,245l139-157L-21,1688z"/>
<path class="st68" d="M-47,2043l71-110l-196-4L-47,2043z"/>
<path class="st69" d="M24,1933l-45-245l-151,241L24,1933z"/>
<path class="st70" d="M840,1108l129-103l-252-11L840,1108z"/>
<path class="st71" d="M717,994l-66-188l-67,75L717,994z"/>
<path class="st72" d="M1012,1414l31-283l-183,200L1012,1414z"/>
<path class="st73" d="M1247,1381l-204-250l-31,283L1247,1381z"/>
<path class="st74" d="M187,831L30,1014l232-66L187,831z"/>
<path class="st75" d="M262,948l-232,66l254-15L262,948z"/>
<path class="st76" d="M1043,1131l-27-53l-176,30L1043,1131z"/>
<path class="st77" d="M374,2092l135,70l-14-321L374,2092z"/>
<path class="st78" d="M413,2245l96-83l-135-70L413,2245z"/>
<path class="st79" d="M-146,1170l-32,242l113-173L-146,1170z"/>
<path class="st80" d="M-65,1239l-113,173l159,28L-65,1239z"/>
<path class="st81" d="M-244,1733l223-45l-54-76L-244,1733z"/>
<path class="st82" d="M1016,1078l-47-73l-129,103L1016,1078z"/>
<path class="st83" d="M24,1933l218,197l12-256L24,1933z"/>
<path class="st84" d="M939,768l-288,38l66,188L939,768z"/>
<path class="st85" d="M584,881L387,721l-2,137L584,881z"/>
<path class="st39" d="M509,2162l84,26l178-216L509,2162z"/>
<path class="st86" d="M413,2245l180-57l-84-26L413,2245z"/>
<path class="st87" d="M30,1014l-176,156l81,69L30,1014z"/>
<path class="st88" d="M385,858l-198-27l75,117L385,858z"/>
<path class="st89" d="M30,1014l-154,17l-22,139L30,1014z"/>
<path class="st90" d="M387,721L187,831l198,27L387,721z"/>
<path class="st91" d="M791,2055l116,47l-76-197L791,2055z"/>
<path class="st92" d="M1336,1750l-112-130l-116,28L1336,1750z"/>
<path class="st93" d="M671,2261l236-159l-116-47L671,2261z"/>
<path class="st94" d="M1108,1648l116-28l-165-33L1108,1648z"/>
<path class="st95" d="M1336,1750l-228-102l177,246L1336,1750z"/>
<path class="st96" d="M960,2285l35-196l-88,13L960,2285z"/>
<path class="st97" d="M242,2130l171,115l-39-153L242,2130z"/>
<path class="st98" d="M1224,1620l23-239l-188,206L1224,1620z"/>
<path class="st99" d="M1145,901l-176,104l47,73L1145,901z"/>
<path class="st100" d="M1145,901L939,768l30,237L1145,901z"/>
<path class="st101" d="M4,867l-128,164l154-17L4,867z"/>
<path class="st102" d="M24,1933l-71,110l289,87L24,1933z"/>
<path class="st103" d="M242,2130l-43,106l214,9L242,2130z"/>
<path class="st104" d="M-244,1733l169-121l-32-78L-244,1733z"/>
<path class="st105" d="M-178,1412l-66,321l137-199L-178,1412z"/>
<path class="st106" d="M-256,884l12,849l66-321L-256,884z"/>
<path class="st107" d="M-256,884l78,528l32-242L-256,884z"/>
<path class="st108" d="M530,658l-143,63l197,160L530,658z"/>
<path class="st109" d="M907,2102l88-13l-164-184L907,2102z"/>
<path class="st110" d="M671,2261l120-206l-198,133L671,2261z"/>
<path class="st111" d="M132,640L4,867l183-36L132,640z"/>
<path class="st112" d="M187,831L4,867l26,147L187,831z"/>
<path class="st113" d="M567,2420l104-159l-78-73L567,2420z"/>
<path class="st114" d="M-244,1733l72,196l151-241L-244,1733z"/>
<path class="st115" d="M-17,2202l216,34l43-106L-17,2202z"/>
<path class="st116" d="M413,2245l154,175l26-232L413,2245z"/>
<path class="st117" d="M387,721l-255-81l55,191L387,721z"/>
<path class="st118" d="M651,806L530,658l54,223L651,806z"/>
<path class="st119" d="M687,668l-157-10l121,148L687,668z"/>
<path class="st120" d="M939,768L687,668l-36,138L939,768z"/>
<path class="st121" d="M1145,901l-129,177l27,53L1145,901z"/>
<path class="st122" d="M969,1005l-30-237L717,994L969,1005z"/>
<path class="st123" d="M-119,2166l102,36l-30-159L-119,2166z"/>
<path class="st124" d="M-47,2043l30,159l259-72L-47,2043z"/>
<path class="st125" d="M1287,933l-142-32l-102,230L1287,933z"/>
<path class="st126" d="M1224,1620l149-128l-126-111L1224,1620z"/>
<path class="st127" d="M1247,1381l69-225l-273-25L1247,1381z"/>
<path class="st128" d="M1336,1750l37-258l-149,128L1336,1750z"/>
<path class="st129" d="M1285,1894l-177-246l-97,184L1285,1894z"/>
<path class="st130" d="M1378,1362l-62-206l-69,225L1378,1362z"/>
<path class="st131" d="M995,2089l290-195l-274-62L995,2089z"/>
<path class="st132" d="M1373,1492l5-130l-131,19L1373,1492z"/>
<path class="st133" d="M-172,1929l53,237l72-123L-172,1929z"/>
<path class="st134" d="M-210,2268l91-102l-53-237L-210,2268z"/>
<path class="st135" d="M235,556l-103,84l255,81L235,556z"/>
<path class="st136" d="M4,867l-260,17l132,147L4,867z"/>
<path class="st137" d="M671,2261l289,24l-53-183L671,2261z"/>
<path class="st138" d="M995,2089l230,65l60-260L995,2089z"/>
<path class="st139" d="M759,2454l201-169l-289-24L759,2454z"/>
<path class="st140" d="M325,2518l242-98l-154-175L325,2518z"/>
<path class="st141" d="M325,2518l88-273l-214-9L325,2518z"/>
<path class="st142" d="M325,2518l-126-282l-79,274L325,2518z"/>
<path class="st143" d="M1378,1362l-5-220l-57,14L1378,1362z"/>
<path class="st144" d="M1316,1156l-29-223l-244,198L1316,1156z"/>
<path class="st145" d="M939,768l-86-160l-166,60L939,768z"/>
<path class="st146" d="M687,668L559,537l-29,121L687,668z"/>
<path class="st147" d="M530,658L354,504l33,217L530,658z"/>
<path class="st148" d="M1122,587l-269,21l86,160L1122,587z"/>
<path class="st149" d="M769,496l-210,41l128,131L769,496z"/>
<path class="st150" d="M-258,662l2,222L4,867L-258,662z"/>
<path class="st151" d="M-124,1031l-132-147l110,286L-124,1031z"/>
<path class="st152" d="M132,640L30,611L4,867L132,640z"/>
<path class="st153" d="M354,504l-119,52l152,165L354,504z"/>
<path class="st154" d="M1145,901l-23-314L939,768L1145,901z"/>
<path class="st155" d="M1373,1142l-86-209l29,223L1373,1142z"/>
<path class="st156" d="M1441,2084l-47-230l-109,40L1441,2084z"/>
<path class="st157" d="M1285,1894l109-40l-58-104L1285,1894z"/>
<path class="st92" d="M1336,1750l161-60l-124-198L1336,1750z"/>
<path class="st158" d="M1373,1492l124,198l-119-328L1373,1492z"/>
<path class="st159" d="M1378,1362l83-400l-88,180L1378,1362z"/>
<path class="st160" d="M1287,933l-27-58l-115,26L1287,933z"/>
<path class="st161" d="M1086,2345l139-191l-230-65L1086,2345z"/>
<path class="st162" d="M8,503l22,108l102,29L8,503z"/>
<path class="st163" d="M559,537l-205-33l176,154L559,537z"/>
<path class="st164" d="M235,556L8,503l124,137L235,556z"/>
<path class="st165" d="M960,2285l126,60l-91-256L960,2285z"/>
<path class="st166" d="M567,2420l192,34l-88-193L567,2420z"/>
<path class="st167" d="M1441,2084l56-394l-103,164L1441,2084z"/>
<path class="st168" d="M1394,1854l103-164l-161,60L1394,1854z"/>
<path class="st169" d="M853,608l-84-112l-82,172L853,608z"/>
<path class="st170" d="M559,537l-5-251L354,504L559,537z"/>
<path class="st171" d="M845,472l-76,24l84,112L845,472z"/>
<path class="st172" d="M567,2420l144,223l48-189L567,2420z"/>
<path class="st173" d="M120,2510l79-274L41,2505L120,2510z"/>
<path class="st161" d="M1034,2420l52-75l-126-60L1034,2420z"/>
<path class="st174" d="M-119,2166l-91,102l193-66L-119,2166z"/>
<path class="st175" d="M-244,1733l34,535l38-339L-244,1733z"/>
<path class="st176" d="M759,2454l114,13l87-182L759,2454z"/>
<path class="st92" d="M711,2643l162-176l-114-13L711,2643z"/>
<path class="st177" d="M873,2467l161-47l-74-135L873,2467z"/>
<path class="st178" d="M1370,2332l71-248l-216,70L1370,2332z"/>
<path class="st179" d="M769,496L554,286l5,251L769,496z"/>
<path class="st180" d="M1057,485l-212-13l8,136L1057,485z"/>
<path class="st181" d="M41,2505l158-269l-216-34L41,2505z"/>
<path class="st182" d="M307,260l-72,296l119-52L307,260z"/>
<path class="st183" d="M128,284L8,503l227,53L128,284z"/>
<path class="st184" d="M30,611l-288,51L4,867L30,611z"/>
<path class="st185" d="M1308,713l-186-126l23,314L1308,713z"/>
<path class="st186" d="M1260,875l48-162l-163,188L1260,875z"/>
<path class="st187" d="M1287,933l222-92l-249,34L1287,933z"/>
<path class="st188" d="M1373,1142l88-180l-174-29L1373,1142z"/>
<path class="st189" d="M1497,1690l-36-728l-83,400L1497,1690z"/>
<path class="st190" d="M-201,2474l242,31l-58-303L-201,2474z"/>
<path class="st191" d="M8,503l-266,159l288-51L8,503z"/>
<path class="st192" d="M325,2518l213,93l29-191L325,2518z"/>
<path class="st193" d="M873,2467l67,233l94-280L873,2467z"/>
<path class="st194" d="M319,2603l219,8l-213-93L319,2603z"/>
<path class="st195" d="M235,2583l90-65l-205-8L235,2583z"/>
<path class="st196" d="M60,2607l175-24l-115-73L60,2607z"/>
<path class="st197" d="M1225,2154l216-70l-156-190L1225,2154z"/>
<path class="st198" d="M1225,2346v-192l-139,191L1225,2346z"/>
<path class="st199" d="M235,2583l84,20l6-85L235,2583z"/>
<path class="st200" d="M1034,2420l191-74l-139-1L1034,2420z"/>
<path class="st201" d="M1509,841l-201-128l-48,162L1509,841z"/>
<path class="st202" d="M1122,587l-65-102L853,608L1122,587z"/>
<path class="st203" d="M1189,396l-132,89l65,102L1189,396z"/>
<path class="st204" d="M924,356l-122,6l43,110L924,356z"/>
<path class="st205" d="M845,472l-43-110l-33,134L845,472z"/>
<path class="st206" d="M1290,2446l80-114l-145,14L1290,2446z"/>
<path class="st207" d="M538,2611l173,32l-144-223L538,2611z"/>
<path class="st208" d="M491,2734l220-91l-173-32L491,2734z"/>
<path class="st209" d="M235,2583l-73,174l157-154L235,2583z"/>
<path class="st210" d="M319,2603l172,131l47-123L319,2603z"/>
<path class="st211" d="M41,2505l19,102l60-97L41,2505z"/>
<path class="st212" d="M-201,2474l261,133l-19-102L-201,2474z"/>
<path class="st213" d="M-260,2588l59-114l-9-206L-260,2588z"/>
<path class="st214" d="M-210,2268l9,206l184-272L-210,2268z"/>
<path class="st215" d="M802,362l-248-76l215,210L802,362z"/>
<path class="st216" d="M1308,713l-119-317l-67,191L1308,713z"/>
<path class="st217" d="M1461,962l48-121l-222,92L1461,962z"/>
<path class="st159" d="M1497,1690l12-849l-48,121L1497,1690z"/>
<path class="st218" d="M802,362L677,134L554,286L802,362z"/>
<path class="st219" d="M1057,485L924,356l-79,116L1057,485z"/>
<path class="st220" d="M1104,313l-180,43l133,129L1104,313z"/>
<path class="st221" d="M1225,2346l145-14l-145-178V2346z"/>
<path class="st222" d="M1290,2446l-65-100l-191,74L1290,2446z"/>
<path class="st223" d="M290,2837l201-103l-172-131L290,2837z"/>
<path class="st224" d="M554,286l-247-26l47,244L554,286z"/>
<path class="st225" d="M8,503l-255-16l-11,175L8,503z"/>
<path class="st226" d="M-109,301l-138,186L8,503L-109,301z"/>
<path class="st227" d="M940,2700l-67-233l-162,176L940,2700z"/>
<path class="st228" d="M1191,2635l99-189l-256-26L1191,2635z"/>
<path class="st229" d="M307,260l-179,24l107,272L307,260z"/>
<path class="st230" d="M1509,841l-48-161l-153,33L1509,841z"/>
<path class="st167" d="M870,2790l70-90l-229-57L870,2790z"/>
<path class="st231" d="M128,284H14L8,503L128,284z"/>
<path class="st232" d="M72,167L14,284h114L72,167z"/>
<path class="st233" d="M949,124l-272,10l125,228L949,124z"/>
<path class="st234" d="M1477,443l-288-47l119,317L1477,443z"/>
<path class="st235" d="M60,2607l102,150l73-174L60,2607z"/>
<path class="st236" d="M17,2885l145-128L60,2607L17,2885z"/>
<path class="st198" d="M940,2700l183-52l-89-228L940,2700z"/>
<path class="st237" d="M-201,2474l-59,114l320,19L-201,2474z"/>
<path class="st238" d="M-244,1733l-16,855l50-320L-244,1733z"/>
<path class="st239" d="M-256,884l-4,1704l16-855L-256,884z"/>
<path class="st240" d="M-258,662l-2,1926l4-1704L-258,662z"/>
<path class="st241" d="M1189,396l-85-83l-47,172L1189,396z"/>
<path class="st242" d="M554,286L309,129l-2,131L554,286z"/>
<path class="st243" d="M14,284l-123,17L8,503L14,284z"/>
<path class="st244" d="M1183,2755l8-120l-68,13L1183,2755z"/>
<path class="st245" d="M1123,2648l68-13l-157-215L1123,2648z"/>
<path class="st246" d="M1290,2446l212,51l-132-165L1290,2446z"/>
<path class="st247" d="M1140,2784l43-29l-60-107L1140,2784z"/>
<path class="st248" d="M779,2847l91-57l-159-147L779,2847z"/>
<path class="st249" d="M779,2847l-68-204l-220,91L779,2847z"/>
<path class="st250" d="M162,2757l128,80l29-234L162,2757z"/>
<path class="st251" d="M180,2901l110-64l-128-80L180,2901z"/>
<path class="st252" d="M307,260L128,156v128L307,260z"/>
<path class="st253" d="M14,284l58-117l-181,134L14,284z"/>
<path class="st254" d="M949,124L802,362l122-6L949,124z"/>
<path class="st107" d="M590,86l-281,43l245,157L590,86z"/>
<path class="st255" d="M309,129l-181,27l179,104L309,129z"/>
<path class="st228" d="M1140,2784l-17-136l-183,52L1140,2784z"/>
<path class="st189" d="M467,2901l312-54l-288-113L467,2901z"/>
<path class="st256" d="M128,156l-56,11l56,117V156z"/>
<path class="st255" d="M309,129l13-184L128,156L309,129z"/>
<path class="st257" d="M677,134l-87-48l-36,200L677,134z"/>
<path class="st258" d="M796-78L590,86l87,48L796-78z"/>
<path class="st259" d="M290,2837l177,64l24-167L290,2837z"/>
<path class="st260" d="M1104,313L949,124l-25,232L1104,313z"/>
<path class="st261" d="M1189,396l27-124l-112,41L1189,396z"/>
<path class="st262" d="M1477,443l-261-171l-27,124L1477,443z"/>
<path class="st263" d="M1399,2675l-109-229l-99,189L1399,2675z"/>
<path class="st264" d="M1399,2675l103-178l-212-51L1399,2675z"/>
<path class="st265" d="M1370,2332l132,165l-61-413L1370,2332z"/>
<path class="st200" d="M1441,2084l61,413l-5-807L1441,2084z"/>
<path class="st266" d="M1497,1690l5,807l7-1656L1497,1690z"/>
<path class="st267" d="M1461,680l16-237l-169,270L1461,680z"/>
<path class="st268" d="M1509,841l-32-398l-16,237L1509,841z"/>
<path class="st178" d="M1140,2784l-200-84l-70,90L1140,2784z"/>
<path class="st269" d="M1173,171l-224-47l155,189L1173,171z"/>
<path class="st270" d="M17,2885l163,16l-18-144L17,2885z"/>
<path class="st271" d="M290,2837l115,158l62-94L290,2837z"/>
<path class="st157" d="M779,2847l9,60l82-117L779,2847z"/>
<path class="st272" d="M467,2901l321,6l-9-60L467,2901z"/>
<path class="st130" d="M405,2995l383-88l-321-6L405,2995z"/>
<path class="st273" d="M912,2977l228-193l-270,6L912,2977z"/>
<path class="st274" d="M-236,2865l253,20l43-278L-236,2865z"/>
<path class="st275" d="M1216,272l-43-101l-69,142L1216,272z"/>
<path class="st274" d="M1407,32l-234,139l43,101L1407,32z"/>
<path class="st276" d="M1441,2840l-42-165l-216,80L1441,2840z"/>
<path class="st277" d="M1183,2755l216-80l-208-40L1183,2755z"/>
<path class="st278" d="M0,3044l405-49l-225-94L0,3044z"/>
<path class="st279" d="M180,2901l225,94l-115-158L180,2901z"/>
<path class="st276" d="M1197,3022l244-182l-258-85L1197,3022z"/>
<path class="st280" d="M788,2907l124,70l-42-187L788,2907z"/>
<path class="st281" d="M405,2995l507-18l-124-70L405,2995z"/>
<path class="st282" d="M590,86L472-56L309,129L590,86z"/>
<path class="st283" d="M128,156L116-95L72,167L128,156z"/>
<path class="st284" d="M796-78L472-56L590,86L796-78z"/>
<path class="st285" d="M796-78L677,134l272-10L796-78z"/>
<path class="st190" d="M1173,171l-54-94l-170,47L1173,171z"/>
<path class="st286" d="M1407,32l-288,45l54,94L1407,32z"/>
<path class="st287" d="M17,2885L0,3044l180-143L17,2885z"/>
<path class="st286" d="M-260,2588l24,277l296-258L-260,2588z"/>
<path class="st288" d="M472-56l-150,1l-13,184L472-56z"/>
<path class="st289" d="M-148-9l-109,72l148,238L-148-9z"/>
<path class="st290" d="M1477,443l14-179l-275,8L1477,443z"/>
<path class="st234" d="M1509,841l-18-577l-14,179L1509,841z"/>
<path class="st175" d="M909-100L796-78l153,202L909-100z"/>
<path class="st191" d="M183-178l-67,83l206,40L183-178z"/>
<path class="st289" d="M-148-9l39,310L72,167L-148-9z"/>
<path class="st291" d="M-109,301L-257,63l10,424L-109,301z"/>
<path class="st292" d="M-247,487l-10-424l-1,599L-247,487z"/>
<path class="st214" d="M1119,77l-63-108L949,124L1119,77z"/>
<path class="st293" d="M1089-162l-33,131l198-136L1089-162z"/>
<path class="st274" d="M-244,2991l244,53l17-159L-244,2991z"/>
<path class="st206" d="M1162,3039l-22-255l-228,193L1162,3039z"/>
<path class="st288" d="M302-161l20,106l150-1L302-161z"/>
<path class="st225" d="M322-55L116-95l12,251L322-55z"/>
<path class="st289" d="M116-95L-148-9L72,167L116-95z"/>
<path class="st294" d="M609-308L302-161L472-56L609-308z"/>
<path class="st295" d="M1056-31l-147-69l40,224L1056-31z"/>
<path class="st263" d="M1197,3022l-14-267l-43,29L1197,3022z"/>
<path class="st296" d="M1399,2675l42,165l61-343L1399,2675z"/>
<path class="st284" d="M609-308L472-56l324-22L609-308z"/>
<path class="st289" d="M116-95L6-143L-148-9L116-95z"/>
<path class="st274" d="M-236,2865l-8,126l261-106L-236,2865z"/>
<path class="st274" d="M-260,2588l16,403l8-126L-260,2588z"/>
<path class="st297" d="M1162,3039l35-17l-57-238L1162,3039z"/>
<path class="st298" d="M1162,3039l-250-62l-507,18L1162,3039z"/>
<path class="st299" d="M0,3044l1162-5l-757-44L0,3044z"/>
<path class="st184" d="M302-161l-119-17L322-55L302-161z"/>
<path class="st300" d="M45-305l138,127l119,17L45-305z"/>
<path class="st243" d="M183-178L6-143l110,48L183-178z"/>
<path class="st289" d="M-148-9l-1-199L-257,63L-148-9z"/>
<path class="st276" d="M1197,3022l254-124l-10-58L1197,3022z"/>
<path class="st276" d="M1441,2840l10,58l51-401L1441,2840z"/>
<path class="st301" d="M1491,264l-84-232l-191,240L1491,264z"/>
<path class="st295" d="M1089-162l-173-48l-7,110L1089-162z"/>
<path class="st302" d="M1089-162l-180,62l147,69L1089-162z"/>
<path class="st68" d="M909-100l7-110L796-78L909-100z"/>
<path class="st303" d="M1254-167L1056-31l63,108L1254-167z"/>
<path class="st214" d="M1474-226l-730-66l172,82L1474-226z"/>
<path class="st69" d="M916-210l-172-82l52,214L916-210z"/>
<path class="st289" d="M45-305l-194,97L6-143L45-305z"/>
<path class="st304" d="M744-292l-135-16L796-78L744-292z"/>
<path class="st305" d="M1089-162l165-5l-338-43L1089-162z"/>
<path class="st274" d="M1407,32l-97-162L1119,77L1407,32z"/>
<path class="st274" d="M1491,264l-67-317l-17,85L1491,264z"/>
<path class="st306" d="M45-305L6-143l177-35L45-305z"/>
<path class="st289" d="M6-143l-155-65l1,199L6-143z"/>
<path class="st274" d="M1424-53l-114-77l97,162L1424-53z"/>
<path class="st286" d="M1310-130l-56-37L1119,77L1310-130z"/>
<path class="st307" d="M609-308l-564,3l257,144L609-308z"/>
<path class="st274" d="M1310-130l164-96l-220,59L1310-130z"/>
<path class="st308" d="M1254-167l220-59l-558,16L1254-167z"/>
<path class="st309" d="M744-292l730,66l-865-82L744-292z"/>
<path class="st274" d="M1424-53l50-173l-164,96L1424-53z"/>
<path class="st274" d="M1491,264l-17-490l-50,173L1491,264z"/>
</svg>
