<svg xmlns="http://www.w3.org/2000/svg" viewBox="0 0 88.09 53.07"><defs><style>.cls-1{fill:#ffa253;}</style></defs><title>truck</title><g id="Layer_2" data-name="Layer 2"><g id="Layer_1-2" data-name="Layer 1"><path class="cls-1" d="M34.1,28.24a1.77,1.77,0,0,0,1.37.78h.11a1.78,1.78,0,0,0,1.34-.61L50.25,13.18a1.79,1.79,0,1,0-2.69-2.35L35.75,24.32,32.3,19.25a1.79,1.79,0,0,0-3,2Z"/><path class="cls-1" d="M1.77,19.45l7,.05v6.15H3.37a1.79,1.79,0,0,0,0,3.57H8.73V44.48a1.79,1.79,0,0,0,1.79,1.79H20a7.7,7.7,0,0,0,15.3,0h30a7.7,7.7,0,0,0,15,0h6a1.79,1.79,0,0,0,1.78-1.79V26.87s0-.05,0-.07,0,0,0-.06v-.46a1.88,1.88,0,0,0-.12-.66L83.6,14.69a1.78,1.78,0,0,0-1.66-1.12h-2.5V8.47A1.78,1.78,0,0,0,78,6.71l-16.91-3V1.79A1.79,1.79,0,0,0,59.26,0H10.52A1.79,1.79,0,0,0,8.73,1.79V15.92L1.8,15.87h0a1.79,1.79,0,0,0,0,3.58ZM27.65,49.5a4.14,4.14,0,0,1-4.13-4.13,4.37,4.37,0,0,1,.05-.64l.06-.31,0-.06a1.58,1.58,0,0,1,.09-.31s0,0,0,0,.08-.21.13-.32h0a4.16,4.16,0,0,1,3.38-2.42H28a4.14,4.14,0,0,1,3.38,2.42h0c0,.11.09.21.12.32l0,0,.09.31,0,.06.06.31a4.37,4.37,0,0,1,.05.64A4.14,4.14,0,0,1,27.65,49.5Zm45.13-.9a4.13,4.13,0,1,1,4.13-4.12A4.14,4.14,0,0,1,72.78,48.6Zm7.49-5.91a.31.31,0,0,0,0-.08l0-.13c0-.07,0-.14-.07-.22a.56.56,0,0,0,0-.12c0-.08,0-.15-.07-.23a.36.36,0,0,1,0-.11l-.11-.27,0-.05a3.13,3.13,0,0,0-.15-.32l0-.08-.12-.24-.06-.1-.12-.2a.41.41,0,0,0-.07-.11l-.12-.19-.07-.11c0-.06-.09-.12-.13-.19l-.07-.09-.18-.23,0,0c-.08-.09-.15-.18-.23-.26a.46.46,0,0,0-.07-.07l-.17-.19L78.16,39,78,38.82l-.1-.09-.17-.14a.39.39,0,0,0-.1-.08l-.18-.15-.09-.07a2.2,2.2,0,0,0-.25-.17l0,0a2.9,2.9,0,0,1-.29-.19l-.09,0-.21-.12-.12-.06-.2-.1-.12-.06-.2-.09-.12-.06-.22-.08-.11,0-.31-.11h0L74.72,37l-.1,0-.24-.06-.14,0-.22,0-.14,0-.23,0-.13,0-.25,0h-1l-.25,0-.13,0-.23,0-.14,0-.22,0-.14,0-.24,0-.1,0-.35.09h0l-.31.11-.11,0-.22.09-.12.05-.2.09-.12.06-.2.1-.11.06-.22.12-.09.06-.29.18,0,0-.25.17-.09.07-.18.15-.1.08-.17.15-.1.08c0,.06-.11.11-.16.16l-.09.09-.17.18-.07.07c-.08.08-.15.17-.23.26l0,0-.18.23-.07.1c0,.06-.09.12-.13.19l-.08.1-.12.19-.06.11-.12.2-.06.11-.12.23,0,.08c0,.1-.09.21-.14.32l0,.06-.1.27s0,.07,0,.11,0,.15-.08.22a.65.65,0,0,1,0,.13l-.06.21,0,.14a.19.19,0,0,0,0,.07H61.05V17.14h7.56V26.8a1.79,1.79,0,0,0,1.78,1.79H84.51v14.1ZM83.6,25H72.18V17.14h8.09ZM75.86,10v3.61H61.05V7.33ZM12.3,3.57H57.48V42.69H34.87a7.71,7.71,0,0,0-6.26-5h-.09l-.19,0-.19,0h-1l-.19,0-.19,0h-.09a7.71,7.71,0,0,0-6.26,5H12.3V29.22H23a1.79,1.79,0,1,0,0-3.57H12.3V19.52l6.94.05h0a1.79,1.79,0,1,0,0-3.57l-7-.05V3.57Z"/></g></g></svg>