<?xml version="1.0" encoding="utf-8"?>
<!-- Generator: Adobe Illustrator 22.1.0, SVG Export Plug-In . SVG Version: 6.00 Build 0)  -->
<svg version="1.1" id="Layer_1" xmlns="http://www.w3.org/2000/svg" xmlns:xlink="http://www.w3.org/1999/xlink" x="0px" y="0px"
	 viewBox="0 0 88.1 53.1" style="enable-background:new 0 0 88.1 53.1;" xml:space="preserve">
<style type="text/css">
	.st0{fill:#FFD200;}
</style>
<title>truck</title>
<g id="Layer_2_1_">
	<g id="Layer_1-2">
		<path class="st0" d="M34.1,28.2c0.3,0.5,0.8,0.7,1.4,0.8h0.1c0.5,0,1-0.2,1.3-0.6l13.3-15.2c0.7-0.7,0.7-1.8,0-2.5
			c-0.7-0.7-1.8-0.7-2.5,0c-0.1,0.1-0.1,0.1-0.2,0.2L35.8,24.3l-3.5-5.1c-0.6-0.8-1.7-1.1-2.5-0.5s-1.1,1.7-0.5,2.5L34.1,28.2z"/>
		<path class="st0" d="M1.8,19.5l7,0v6.1H3.4c-1,0.1-1.7,0.9-1.7,1.9c0.1,0.9,0.8,1.6,1.7,1.7h5.4v15.3c0,1,0.8,1.8,1.8,1.8h0H20
			c0.5,4.2,4.3,7.3,8.5,6.8c3.6-0.4,6.4-3.2,6.8-6.8h30c1,4.1,5.1,6.7,9.2,5.8c2.9-0.7,5.1-2.9,5.8-5.8h6c1,0,1.8-0.8,1.8-1.8V26.9
			c0,0,0,0,0-0.1s0,0,0-0.1v-0.5c0-0.2,0-0.4-0.1-0.7l-4.4-10.9c-0.3-0.7-0.9-1.1-1.7-1.1h-2.5V8.5c0-0.9-0.6-1.6-1.4-1.8l-16.9-3
			V1.8c0-1-0.8-1.8-1.8-1.8c0,0,0,0,0,0H10.5c-1,0-1.8,0.8-1.8,1.8c0,0,0,0,0,0v14.1l-6.9-0.1l0,0c-1,0-1.8,0.8-1.8,1.8
			S0.8,19.5,1.8,19.5L1.8,19.5z M27.6,49.5c-2.3,0-4.1-1.9-4.1-4.1c0-0.2,0-0.4,0-0.6l0.1-0.3v-0.1c0-0.1,0-0.2,0.1-0.3l0,0
			c0,0,0.1-0.2,0.1-0.3l0,0c0.6-1.4,1.9-2.3,3.4-2.4H28c1.5,0.1,2.8,1.1,3.4,2.4l0,0c0,0.1,0.1,0.2,0.1,0.3l0,0l0.1,0.3v0.1l0.1,0.3
			c0,0.2,0,0.4,0,0.6C31.7,47.6,29.9,49.5,27.6,49.5z M72.8,48.6c-2.3,0-4.1-1.8-4.1-4.1s1.8-4.1,4.1-4.1c2.3,0,4.1,1.8,4.1,4.1
			c0,0,0,0,0,0C76.9,46.8,75.1,48.6,72.8,48.6z M80.3,42.7C80.3,42.7,80.3,42.6,80.3,42.7v-0.2c0-0.1,0-0.1-0.1-0.2c0,0,0-0.1,0-0.1
			c0-0.1,0-0.2-0.1-0.2c0,0,0-0.1,0-0.1L80,41.5v0c0-0.1-0.1-0.2-0.2-0.3v-0.1l-0.1-0.2l-0.1-0.1l-0.1-0.2c0,0,0-0.1-0.1-0.1
			l-0.1-0.2l-0.1-0.1c0-0.1-0.1-0.1-0.1-0.2l-0.1-0.1l-0.2-0.2l0,0c-0.1-0.1-0.2-0.2-0.2-0.3c0,0,0,0-0.1-0.1l-0.2-0.2L78.2,39
			L78,38.8l-0.1-0.1l-0.2-0.1c0,0-0.1-0.1-0.1-0.1l-0.2-0.2l-0.1-0.1c-0.1-0.1-0.2-0.1-0.3-0.2l0,0c-0.1-0.1-0.2-0.1-0.3-0.2h-0.1
			l-0.2-0.1l-0.1-0.1l-0.2-0.1l-0.1-0.1l-0.2-0.1l-0.1-0.1l-0.2-0.1h-0.1l-0.3-0.1l0,0L74.7,37h-0.1l-0.2-0.1h-0.1H74h-0.1h-0.2
			h-0.1h-0.3h-1H72h-0.1h-0.2h-0.1h-0.2h-0.1h-0.2h-0.1L70.5,37l0,0l-0.3,0.1h-0.1l-0.2,0.1l-0.1,0l-0.2,0.1l-0.1,0.1l-0.2,0.1
			l-0.1,0.1l-0.2,0.1l-0.1,0.1L68.5,38l0,0l-0.3,0.2l-0.1,0.1L68,38.3l-0.1,0.1l-0.2,0.2l-0.1,0.1c0,0.1-0.1,0.1-0.2,0.2l-0.1,0.1
			l-0.2,0.2l-0.1,0.1c-0.1,0.1-0.2,0.2-0.2,0.3l0,0l-0.2,0.2l-0.1,0.1c0,0.1-0.1,0.1-0.1,0.2L66.4,40l-0.1,0.2l-0.1,0.1l-0.1,0.2
			l-0.1,0.1l-0.1,0.2V41c0,0.1-0.1,0.2-0.1,0.3v0.1l-0.1,0.3c0,0,0,0.1,0,0.1s0,0.2-0.1,0.2c0,0,0,0.1,0,0.1l-0.1,0.2v0.1
			c0,0,0,0,0,0.1H61V17.1h7.6v9.7c0,1,0.8,1.8,1.8,1.8h14.1v14.1L80.3,42.7z M83.6,25H72.2v-7.9h8.1L83.6,25z M75.9,10v3.6H61V7.3
			L75.9,10z M12.3,3.6h45.2v39.1H34.9c-1-2.7-3.4-4.6-6.3-5h-0.1h-0.2h-0.2h-1h-0.2h-0.2h-0.1c-2.9,0.4-5.3,2.3-6.3,5h-8.1V29.2H23
			c1,0.1,1.8-0.7,1.9-1.7c0.1-1-0.7-1.8-1.7-1.9c-0.1,0-0.2,0-0.3,0H12.3v-6.1l6.9,0l0,0c1,0.1,1.8-0.7,1.9-1.7
			c0.1-1-0.7-1.8-1.7-1.9c-0.1,0-0.2,0-0.3,0l-7-0.1L12.3,3.6L12.3,3.6z"/>
	</g>
</g>
<rect x="-239" y="-47" class="st0" width="150" height="94"/>
</svg>
