<svg xmlns="http://www.w3.org/2000/svg" viewBox="0 0 82.98 78.98"><defs><style>.cls-1{fill:#fff;}</style></defs><title>white-chat</title><g id="Layer_2" data-name="Layer 2"><g id="Layer_1-2" data-name="Layer 1"><path class="cls-1" d="M83,39.49C83,17.68,64.4,0,41.49,0S0,17.68,0,39.49,18.58,79,41.49,79a42.91,42.91,0,0,0,21.42-5.66L83,77,76,61.49A38,38,0,0,0,83,39.49Zm-61.16,6a6,6,0,1,1,6-6,6,6,0,0,1-6,6Zm19.73,0a6,6,0,1,1,6-6A6,6,0,0,1,41.55,45.49Zm19.73,0a6,6,0,1,1,6-6A6,6,0,0,1,61.28,45.49Z"/></g></g></svg>